<svg width="16" height="10" viewBox="0 0 16 10" fill="none" xmlns="http://www.w3.org/2000/svg">
<path d="M1.33334 4.24992C0.91913 4.24992 0.583343 4.58571 0.583344 4.99992C0.583344 5.41413 0.91913 5.74992 1.33334 5.74992L1.33334 4.24992ZM14.6667 5.74992C15.0809 5.74992 15.4167 5.41413 15.4167 4.99992C15.4167 4.5857 15.0809 4.24992 14.6667 4.24992L14.6667 5.74992ZM11.8613 0.300561C11.5671 0.00897749 11.0922 0.0110962 10.8007 0.305293C10.5091 0.59949 10.5112 1.07436 10.8054 1.36594L11.8613 0.300561ZM12.8025 2.28934L12.2745 2.82203L12.2745 2.82203L12.8025 2.28934ZM12.8025 7.71049L13.3304 8.24319L13.3304 8.24319L12.8025 7.71049ZM10.8054 8.63389C10.5112 8.92548 10.5091 9.40035 10.8007 9.69454C11.0922 9.98874 11.5671 9.99086 11.8613 9.69928L10.8054 8.63389ZM14.6501 4.73881L15.3941 4.64398L15.3941 4.64398L14.6501 4.73881ZM14.6501 5.26103L15.3941 5.35586L15.3941 5.35586L14.6501 5.26103ZM1.33334 5.74992L14.6667 5.74992L14.6667 4.24992L1.33334 4.24992L1.33334 5.74992ZM10.8054 1.36594L12.2745 2.82203L13.3304 1.75665L11.8613 0.300561L10.8054 1.36594ZM12.2745 7.1778L10.8054 8.63389L11.8613 9.69928L13.3304 8.24319L12.2745 7.1778ZM12.2745 2.82203C12.8729 3.41505 13.2758 3.816 13.5471 4.15378C13.8088 4.47972 13.8857 4.67332 13.9061 4.83364L15.3941 4.64398C15.3243 4.09663 15.0632 3.6461 14.7166 3.21453C14.3795 2.79479 13.9037 2.32484 13.3304 1.75665L12.2745 2.82203ZM13.3304 8.24319C13.9037 7.675 14.3795 7.20505 14.7166 6.78531C15.0632 6.35373 15.3243 5.90321 15.3941 5.35586L13.9061 5.1662C13.8857 5.32651 13.8088 5.52012 13.5471 5.84606C13.2758 6.18384 12.8729 6.58479 12.2745 7.1778L13.3304 8.24319ZM13.9061 4.83364C13.9202 4.94406 13.9202 5.05578 13.9061 5.1662L15.3941 5.35586C15.4242 5.11951 15.4242 4.88033 15.3941 4.64398L13.9061 4.83364Z" fill="black"/>
</svg>
