<svg width="226" height="61" viewBox="0 0 226 61" fill="none" xmlns="http://www.w3.org/2000/svg">
<g clip-path="url(#clip0_213_886)">
<path d="M12.2065 33.7439C13.21 33.7439 14.0309 33.6762 14.6695 33.541C15.3385 33.3787 15.8705 33.1757 16.2658 32.9323C16.6612 32.6617 16.9348 32.3506 17.0868 31.9988C17.2388 31.6471 17.3149 31.2549 17.3149 30.8219C17.3149 29.902 16.8283 29.1446 15.8553 28.5493C14.8824 27.9271 13.21 27.2642 10.8382 26.5608C9.8044 26.2361 8.77058 25.8709 7.73675 25.465C6.70292 25.0321 5.77552 24.5045 4.95453 23.8823C4.13355 23.233 3.4646 22.4619 2.94769 21.5691C2.43078 20.6492 2.17232 19.54 2.17232 18.2413C2.17232 16.9427 2.44598 15.7792 2.9933 14.7512C3.54062 13.696 4.31599 12.8032 5.31941 12.0727C6.32284 11.3422 7.53911 10.7876 8.96822 10.4088C10.3973 10.003 12.0089 9.8001 13.8029 9.8001C15.9314 9.8001 17.771 10.003 19.3217 10.4088C20.8724 10.8147 22.1495 11.2611 23.1529 11.7481L21.1005 16.7397C20.2187 16.3339 19.2305 15.9822 18.1358 15.6846C17.0717 15.3599 15.7793 15.1976 14.259 15.1976C12.5562 15.1976 11.3247 15.414 10.5646 15.8469C9.83481 16.2528 9.46993 16.8886 9.46993 17.7543C9.46993 18.2684 9.60676 18.7012 9.88042 19.053C10.1541 19.4047 10.5342 19.7294 11.0207 20.0269C11.5376 20.2975 12.1153 20.5545 12.7539 20.798C13.4228 21.0144 14.1526 21.2444 14.9431 21.4879C16.5851 22.029 18.0142 22.5702 19.2305 23.1112C20.4468 23.6253 21.4502 24.2341 22.2407 24.9375C23.0617 25.6408 23.6698 26.4661 24.0651 27.413C24.4605 28.3599 24.6581 29.5098 24.6581 30.8625C24.6581 33.4869 23.6242 35.5295 21.5566 36.9905C19.489 38.4244 16.3722 39.1414 12.2065 39.1414C10.8078 39.1414 9.54595 39.0602 8.4209 38.8979C7.29585 38.7627 6.29242 38.5867 5.41063 38.3703C4.55924 38.1539 3.81428 37.9239 3.17574 37.6804C2.56761 37.4369 2.05069 37.2069 1.625 36.9905L3.63184 31.9583C4.57445 32.4182 5.72991 32.8376 7.09821 33.2163C8.49692 33.5681 10.1997 33.7439 12.2065 33.7439ZM29.4486 11.9104L36.2445 10.9364V17.2267H44.4087V22.259H36.2445V29.7668C36.2445 31.0384 36.4877 32.0529 36.9743 32.8105C37.4911 33.5681 38.5097 33.9468 40.0301 33.9468C40.7599 33.9468 41.5048 33.8928 42.265 33.7845C43.0556 33.6493 43.7702 33.4733 44.4087 33.2569L45.3665 37.9645C44.5455 38.2621 43.6333 38.5192 42.6299 38.7356C41.6265 38.952 40.395 39.0602 38.9355 39.0602C37.0806 39.0602 35.5451 38.8438 34.3289 38.4109C33.1126 37.951 32.1396 37.3287 31.4098 36.5441C30.6801 35.7325 30.1631 34.7585 29.8591 33.6222C29.5854 32.4858 29.4486 31.2278 29.4486 29.848V11.9104ZM70.4217 37.8428C69.2663 38.1403 67.7764 38.4109 65.9519 38.6544C64.1275 38.925 62.2119 39.0602 60.2051 39.0602C58.1678 39.0602 56.4651 38.8167 55.0968 38.3298C53.7589 37.8428 52.6946 37.1663 51.9041 36.3006C51.1135 35.4078 50.5509 34.3526 50.2165 33.1352C49.882 31.9177 49.7148 30.5785 49.7148 29.1175V17.2267H56.5107V28.387C56.5107 30.335 56.7995 31.7419 57.3773 32.6076C57.955 33.4733 59.0344 33.9062 60.6156 33.9062C61.1021 33.9062 61.619 33.8927 62.1663 33.8657C62.7136 33.8116 63.2002 33.7574 63.6258 33.7033V17.2267H70.4217V37.8428ZM82.5936 27.7377C82.5936 29.6045 83.0648 31.106 84.0075 32.2423C84.95 33.3787 86.3488 33.9468 88.2036 33.9468C88.8117 33.9468 89.3742 33.9333 89.8912 33.9062C90.4081 33.8522 90.8337 33.798 91.1683 33.7439V22.746C90.7425 22.5025 90.18 22.2996 89.4807 22.1372C88.8117 21.9749 88.1276 21.8937 87.4283 21.8937C84.2051 21.8937 82.5936 23.8417 82.5936 27.7377ZM97.9642 37.8833C97.3559 38.0457 96.6566 38.208 95.8661 38.3703C95.0754 38.5056 94.2393 38.6273 93.3576 38.7356C92.5061 38.8438 91.6244 38.925 90.7122 38.9791C89.8303 39.0602 88.979 39.1008 88.158 39.1008C86.1815 39.1008 84.418 38.8438 82.8672 38.3298C81.3165 37.8157 80.009 37.0852 78.9448 36.1383C77.8805 35.1643 77.0595 34.0009 76.4818 32.6482C75.9345 31.2684 75.6609 29.7262 75.6609 28.0217C75.6609 26.2902 75.9041 24.7345 76.3906 23.3547C76.877 21.9478 77.5765 20.7574 78.4887 19.7834C79.4009 18.8095 80.5107 18.0655 81.8182 17.5514C83.1561 17.0373 84.6764 16.7803 86.3792 16.7803C87.3217 16.7803 88.158 16.8615 88.8878 17.0238C89.6478 17.1862 90.4081 17.4162 91.1683 17.7137V8.05504L97.9642 7.08105V37.8833ZM124.915 17.2267C123.546 21.3391 122.117 25.1944 120.627 28.7928C119.137 32.3912 117.511 35.8813 115.747 39.2632C115.109 40.4806 114.47 41.5087 113.831 42.3474C113.193 43.2132 112.494 43.9167 111.733 44.4577C110.973 45.0259 110.107 45.4317 109.134 45.6752C108.191 45.9458 107.081 46.0811 105.804 46.0811C104.74 46.0811 103.752 45.9864 102.839 45.797C101.958 45.6346 101.228 45.4452 100.65 45.2288L101.836 40.3995C102.535 40.6159 103.159 40.7647 103.706 40.8459C104.253 40.927 104.831 40.9676 105.439 40.9676C106.655 40.9676 107.583 40.6701 108.221 40.0748C108.89 39.5067 109.453 38.7085 109.909 37.6804C108.358 34.9749 106.808 31.9448 105.257 28.5899C103.706 25.208 102.247 21.4202 100.878 17.2267H108.085C108.389 18.2819 108.738 19.4317 109.134 20.6763C109.559 21.8938 110 23.1383 110.456 24.4099C110.912 25.6545 111.369 26.8719 111.825 28.0623C112.311 29.2527 112.767 30.335 113.193 31.3089C113.588 30.335 113.999 29.2527 114.424 28.0623C114.85 26.8719 115.261 25.6545 115.656 24.4099C116.082 23.1383 116.477 21.8938 116.842 20.6763C117.237 19.4317 117.587 18.2819 117.891 17.2267H124.915ZM143.016 22.5837C142.408 22.4484 141.693 22.3131 140.872 22.1778C140.052 22.0155 139.17 21.9343 138.227 21.9343C137.802 21.9343 137.284 21.9749 136.676 22.0561C136.098 22.1102 135.658 22.1778 135.354 22.259V38.5732H128.558V18.3631C129.774 17.9843 131.203 17.6326 132.845 17.3079C134.518 16.9561 136.372 16.7803 138.41 16.7803C138.774 16.7803 139.216 16.8074 139.732 16.8615C140.249 16.8886 140.767 16.9427 141.283 17.0238C141.799 17.0779 142.317 17.1591 142.834 17.2673C143.35 17.3485 143.792 17.4567 144.156 17.592L143.016 22.5837ZM154.596 38.5732H147.8V17.2267H154.596V38.5732ZM155.234 11.0582C155.234 12.1674 154.824 13.0467 154.003 13.696C153.211 14.3183 152.27 14.6294 151.175 14.6294C150.08 14.6294 149.123 14.3183 148.302 13.696C147.51 13.0467 147.116 12.1674 147.116 11.0582C147.116 9.9489 147.51 9.08313 148.302 8.46087C149.123 7.81154 150.08 7.48688 151.175 7.48688C152.27 7.48688 153.211 7.81154 154.003 8.46087C154.824 9.08313 155.234 9.9489 155.234 11.0582ZM181.463 37.8428C180.308 38.1403 178.817 38.4109 176.993 38.6544C175.169 38.925 173.253 39.0602 171.246 39.0602C169.208 39.0602 167.506 38.8167 166.138 38.3298C164.8 37.8428 163.735 37.1663 162.945 36.3006C162.155 35.4078 161.592 34.3526 161.258 33.1352C160.923 31.9177 160.756 30.5785 160.756 29.1175V17.2267H167.552V28.387C167.552 30.335 167.84 31.7419 168.418 32.6076C168.996 33.4733 170.075 33.9062 171.657 33.9062C172.144 33.9062 172.66 33.8927 173.207 33.8657C173.755 33.8116 174.242 33.7574 174.667 33.7033V17.2267H181.463V37.8428ZM201.023 27.2507C201.023 25.3027 200.734 23.9229 200.156 23.1112C199.609 22.2996 198.651 21.8937 197.283 21.8937C196.858 21.8937 196.416 21.9208 195.96 21.9749C195.504 22.002 195.064 22.0426 194.637 22.0967V38.5732H187.841V17.9572C188.42 17.822 189.089 17.6866 189.848 17.5514C190.64 17.3891 191.461 17.2538 192.311 17.1456C193.194 17.0103 194.09 16.9156 195.002 16.8615C195.914 16.7803 196.812 16.7397 197.693 16.7397C199.426 16.7397 200.826 16.9427 201.889 17.3485C202.984 17.7272 203.881 18.1872 204.58 18.7283C205.554 18.1061 206.664 17.6191 207.91 17.2673C209.187 16.9156 210.358 16.7397 211.422 16.7397C213.338 16.7397 214.904 16.9832 216.12 17.4702C217.367 17.9301 218.355 18.5931 219.084 19.4588C219.814 20.3245 220.316 21.3527 220.59 22.5431C220.863 23.7335 221 25.0592 221 26.5202V38.5732H214.204V27.2507C214.204 25.3027 213.916 23.9229 213.337 23.1112C212.79 22.2996 211.832 21.8937 210.464 21.8937C210.099 21.8937 209.583 21.9749 208.913 22.1372C208.275 22.2996 207.744 22.5025 207.317 22.746C207.53 23.3682 207.667 24.0311 207.727 24.7345C207.789 25.411 207.819 26.1414 207.819 26.926V38.5732H201.023V27.2507Z" fill="white"/>
<path d="M5.924 60.2411C4.94267 60.2411 4.12667 60.0597 3.476 59.6971C2.836 59.3344 2.35067 58.8277 2.02 58.1771C1.68933 57.5264 1.508 56.7691 1.476 55.9051C1.46533 55.4677 1.46 54.9984 1.46 54.4971C1.46 53.9957 1.46533 53.5157 1.476 53.0571C1.508 52.1931 1.68933 51.4357 2.02 50.7851C2.35067 50.1344 2.836 49.6277 3.476 49.2651C4.12667 48.9024 4.94267 48.7211 5.924 48.7211C6.66 48.7211 7.30533 48.8224 7.86 49.0251C8.41467 49.2277 8.87333 49.4997 9.236 49.8411C9.60933 50.1824 9.892 50.5664 10.084 50.9931C10.276 51.4091 10.3827 51.8411 10.404 52.2891C10.4147 52.3851 10.3827 52.4651 10.308 52.5291C10.244 52.5931 10.164 52.6251 10.068 52.6251H9.188C9.092 52.6251 9.00667 52.5984 8.932 52.5451C8.868 52.4917 8.82 52.3957 8.788 52.2571C8.60667 51.4251 8.26533 50.8544 7.764 50.5451C7.27333 50.2357 6.65467 50.0811 5.908 50.0811C5.05467 50.0811 4.37733 50.3264 3.876 50.8171C3.37467 51.2971 3.10267 52.0704 3.06 53.1371C3.028 54.0117 3.028 54.9077 3.06 55.8251C3.10267 56.8917 3.37467 57.6704 3.876 58.1611C4.37733 58.6411 5.05467 58.8811 5.908 58.8811C6.65467 58.8811 7.27333 58.7264 7.764 58.4171C8.26533 58.1077 8.60667 57.5371 8.788 56.7051C8.82 56.5664 8.868 56.4704 8.932 56.4171C9.00667 56.3637 9.092 56.3371 9.188 56.3371H10.068C10.164 56.3371 10.244 56.3691 10.308 56.4331C10.3827 56.4971 10.4147 56.5771 10.404 56.6731C10.3827 57.1211 10.276 57.5584 10.084 57.9851C9.892 58.4011 9.60933 58.7797 9.236 59.1211C8.87333 59.4624 8.41467 59.7344 7.86 59.9371C7.30533 60.1397 6.66 60.2411 5.924 60.2411ZM11.8603 61.8411C11.7536 61.8411 11.6629 61.8037 11.5883 61.7291C11.5243 61.6651 11.4923 61.5797 11.4923 61.4731V59.1691C11.4923 59.0624 11.5243 58.9771 11.5883 58.9131C11.6629 58.8384 11.7536 58.8011 11.8603 58.8011H11.9403C12.2283 58.7904 12.4736 58.6304 12.6763 58.3211C12.8789 58.0011 13.0336 57.5051 13.1403 56.8331C13.2469 56.1504 13.3003 55.2651 13.3003 54.1771V52.1291C13.3003 52.0224 13.3323 51.9371 13.3963 51.8731C13.4709 51.7984 13.5616 51.7611 13.6683 51.7611H18.7723C18.8789 51.7611 18.9643 51.7984 19.0283 51.8731C19.1029 51.9371 19.1403 52.0224 19.1403 52.1291V58.7691H19.8923C20.0096 58.7691 20.1003 58.8064 20.1643 58.8811C20.2283 58.9451 20.2603 59.0304 20.2603 59.1371V61.4731C20.2603 61.5797 20.2283 61.6651 20.1643 61.7291C20.1003 61.8037 20.0096 61.8411 19.8923 61.8411H19.1403C19.0336 61.8411 18.9429 61.8037 18.8683 61.7291C18.8043 61.6651 18.7723 61.5797 18.7723 61.4731V60.0811H12.9803V61.4731C12.9803 61.5797 12.9429 61.6651 12.8683 61.7291C12.8043 61.8037 12.7189 61.8411 12.6123 61.8411H11.8603ZM13.8443 58.8011L17.6523 58.7691V53.0411H14.7563V54.3531C14.7563 55.4837 14.6763 56.4117 14.5163 57.1371C14.3563 57.8517 14.1323 58.4064 13.8443 58.8011ZM25.246 60.2411C24.1473 60.2411 23.2727 59.9051 22.622 59.2331C21.9713 58.5504 21.614 57.6224 21.55 56.4491C21.5393 56.3104 21.534 56.1344 21.534 55.9211C21.534 55.6971 21.5393 55.5157 21.55 55.3771C21.5927 54.6197 21.7687 53.9584 22.078 53.3931C22.3873 52.8171 22.8087 52.3744 23.342 52.0651C23.886 51.7557 24.5207 51.6011 25.246 51.6011C26.0567 51.6011 26.734 51.7717 27.278 52.1131C27.8327 52.4544 28.254 52.9397 28.542 53.5691C28.83 54.1984 28.974 54.9344 28.974 55.7771V56.0491C28.974 56.1664 28.9367 56.2571 28.862 56.3211C28.798 56.3851 28.7127 56.4171 28.606 56.4171H23.07C23.07 56.4277 23.07 56.4491 23.07 56.4811C23.07 56.5131 23.07 56.5397 23.07 56.5611C23.0913 56.9984 23.1873 57.4091 23.358 57.7931C23.5287 58.1664 23.774 58.4704 24.094 58.7051C24.414 58.9397 24.798 59.0571 25.246 59.0571C25.63 59.0571 25.95 58.9984 26.206 58.8811C26.462 58.7637 26.67 58.6357 26.83 58.4971C26.99 58.3477 27.0967 58.2357 27.15 58.1611C27.246 58.0224 27.3207 57.9424 27.374 57.9211C27.4273 57.8891 27.5127 57.8731 27.63 57.8731H28.398C28.5047 57.8731 28.59 57.9051 28.654 57.9691C28.7287 58.0224 28.7607 58.1024 28.75 58.2091C28.7393 58.3691 28.654 58.5664 28.494 58.8011C28.334 59.0251 28.1047 59.2491 27.806 59.4731C27.5073 59.6971 27.1447 59.8837 26.718 60.0331C26.2913 60.1717 25.8007 60.2411 25.246 60.2411ZM23.07 55.3131H27.454V55.2651C27.454 54.7851 27.3633 54.3584 27.182 53.9851C27.0113 53.6117 26.7607 53.3184 26.43 53.1051C26.0993 52.8811 25.7047 52.7691 25.246 52.7691C24.7873 52.7691 24.3927 52.8811 24.062 53.1051C23.742 53.3184 23.4967 53.6117 23.326 53.9851C23.1553 54.3584 23.07 54.7851 23.07 55.2651V55.3131ZM30.4871 60.0811C30.3805 60.0811 30.2898 60.0437 30.2151 59.9691C30.1405 59.8944 30.1031 59.8037 30.1031 59.6971V59.1051C30.1031 58.8811 30.2151 58.7637 30.4391 58.7531C30.7698 58.7424 31.0471 58.5877 31.2711 58.2891C31.4951 57.9797 31.6658 57.4944 31.7831 56.8331C31.9005 56.1611 31.9591 55.2757 31.9591 54.1771V52.1291C31.9591 52.0224 31.9911 51.9371 32.0551 51.8731C32.1298 51.7984 32.2205 51.7611 32.3271 51.7611H37.4151C37.5218 51.7611 37.6071 51.7984 37.6711 51.8731C37.7458 51.9371 37.7831 52.0224 37.7831 52.1291V59.7131C37.7831 59.8197 37.7458 59.9104 37.6711 59.9851C37.6071 60.0491 37.5218 60.0811 37.4151 60.0811H36.6471C36.5405 60.0811 36.4551 60.0491 36.3911 59.9851C36.3271 59.9104 36.2951 59.8197 36.2951 59.7131V53.0411H33.4151V54.3531C33.4151 55.3771 33.3565 56.2571 33.2391 56.9931C33.1218 57.7184 32.9405 58.3104 32.6951 58.7691C32.4605 59.2171 32.1565 59.5477 31.7831 59.7611C31.4205 59.9744 30.9885 60.0811 30.4871 60.0811ZM42.4884 60.2411C41.955 60.2411 41.4697 60.1344 41.0324 59.9211C40.595 59.7077 40.243 59.4197 39.9764 59.0571C39.7097 58.6944 39.5764 58.2837 39.5764 57.8251C39.5764 57.0891 39.875 56.5024 40.4724 56.0651C41.0697 55.6277 41.8484 55.3397 42.8084 55.2011L45.1924 54.8651V54.4011C45.1924 53.8891 45.043 53.4891 44.7444 53.2011C44.4564 52.9131 43.9817 52.7691 43.3204 52.7691C42.8404 52.7691 42.451 52.8651 42.1524 53.0571C41.8644 53.2491 41.6617 53.4944 41.5444 53.7931C41.4804 53.9531 41.3684 54.0331 41.2084 54.0331H40.4884C40.371 54.0331 40.2804 54.0011 40.2164 53.9371C40.163 53.8624 40.1364 53.7771 40.1364 53.6811C40.1364 53.5211 40.195 53.3237 40.3124 53.0891C40.4404 52.8544 40.6324 52.6251 40.8884 52.4011C41.1444 52.1771 41.4697 51.9904 41.8644 51.8411C42.2697 51.6811 42.7604 51.6011 43.3364 51.6011C43.9764 51.6011 44.515 51.6864 44.9524 51.8571C45.3897 52.0171 45.731 52.2357 45.9764 52.5131C46.2324 52.7904 46.4137 53.1051 46.5204 53.4571C46.6377 53.8091 46.6964 54.1664 46.6964 54.5291V59.7131C46.6964 59.8197 46.659 59.9104 46.5844 59.9851C46.5204 60.0491 46.435 60.0811 46.3284 60.0811H45.5924C45.475 60.0811 45.3844 60.0491 45.3204 59.9851C45.2564 59.9104 45.2244 59.8197 45.2244 59.7131V59.0251C45.0857 59.2171 44.899 59.4091 44.6644 59.6011C44.4297 59.7824 44.1364 59.9371 43.7844 60.0651C43.4324 60.1824 43.0004 60.2411 42.4884 60.2411ZM42.8244 59.0411C43.2617 59.0411 43.6617 58.9504 44.0244 58.7691C44.387 58.5771 44.6697 58.2837 44.8724 57.8891C45.0857 57.4944 45.1924 56.9984 45.1924 56.4011V55.9531L43.3364 56.2251C42.579 56.3317 42.0084 56.5131 41.6244 56.7691C41.2404 57.0144 41.0484 57.3291 41.0484 57.7131C41.0484 58.0117 41.1337 58.2624 41.3044 58.4651C41.4857 58.6571 41.7097 58.8011 41.9764 58.8971C42.2537 58.9931 42.5364 59.0411 42.8244 59.0411ZM49.3485 60.0811C49.2525 60.0811 49.1672 60.0491 49.0925 59.9851C49.0285 59.9104 48.9965 59.8304 48.9965 59.7451V52.1291C48.9965 52.0224 49.0285 51.9371 49.0925 51.8731C49.1672 51.7984 49.2578 51.7611 49.3645 51.7611H50.1325C50.2392 51.7611 50.3245 51.7984 50.3885 51.8731C50.4525 51.9371 50.4845 52.0224 50.4845 52.1291V58.9131L50.0685 58.4811L54.9165 52.0011C54.9698 51.9371 55.0285 51.8837 55.0925 51.8411C55.1565 51.7877 55.2365 51.7611 55.3325 51.7611H56.0685C56.1538 51.7611 56.2285 51.7931 56.2925 51.8571C56.3672 51.9211 56.4045 51.9957 56.4045 52.0811V59.7131C56.4045 59.8197 56.3672 59.9104 56.2925 59.9851C56.2285 60.0491 56.1432 60.0811 56.0365 60.0811H55.2845C55.1672 60.0811 55.0765 60.0491 55.0125 59.9851C54.9485 59.9104 54.9165 59.8197 54.9165 59.7131V53.3291L55.3645 53.3131L50.4845 59.8411C50.4418 59.8944 50.3885 59.9477 50.3245 60.0011C50.2605 60.0544 50.1752 60.0811 50.0685 60.0811H49.3485ZM52.7405 50.6571C52.1218 50.6571 51.6365 50.5611 51.2845 50.3691C50.9325 50.1771 50.6872 49.9317 50.5485 49.6331C50.4098 49.3237 50.3405 49.0037 50.3405 48.6731C50.3405 48.5877 50.3618 48.5184 50.4045 48.4651C50.4578 48.4011 50.5378 48.3691 50.6445 48.3691H51.1885C51.2845 48.3691 51.3592 48.4011 51.4125 48.4651C51.4658 48.5184 51.4925 48.5877 51.4925 48.6731C51.4925 48.9184 51.5725 49.1477 51.7325 49.3611C51.9032 49.5637 52.2392 49.6651 52.7405 49.6651C53.2525 49.6651 53.5885 49.5637 53.7485 49.3611C53.9085 49.1477 53.9885 48.9184 53.9885 48.6731C53.9885 48.5877 54.0152 48.5184 54.0685 48.4651C54.1218 48.4011 54.1965 48.3691 54.2925 48.3691H54.8525C54.9485 48.3691 55.0232 48.4011 55.0765 48.4651C55.1298 48.5184 55.1565 48.5877 55.1565 48.6731C55.1565 49.0037 55.0818 49.3237 54.9325 49.6331C54.7938 49.9317 54.5485 50.1771 54.1965 50.3691C53.8445 50.5611 53.3592 50.6571 52.7405 50.6571ZM66.0284 60.2411C65.271 60.2411 64.615 60.0971 64.0604 59.8091C63.5164 59.5104 63.095 59.0891 62.7964 58.5451C62.4977 57.9904 62.3377 57.3291 62.3164 56.5611C62.3057 56.4011 62.3004 56.1877 62.3004 55.9211C62.3004 55.6544 62.3057 55.4411 62.3164 55.2811C62.3377 54.5131 62.4977 53.8571 62.7964 53.3131C63.095 52.7584 63.5164 52.3371 64.0604 52.0491C64.615 51.7504 65.271 51.6011 66.0284 51.6011C66.647 51.6011 67.175 51.6864 67.6124 51.8571C68.0604 52.0277 68.4284 52.2464 68.7164 52.5131C69.0044 52.7797 69.2177 53.0677 69.3564 53.3771C69.5057 53.6864 69.5857 53.9797 69.5964 54.2571C69.607 54.3637 69.575 54.4491 69.5004 54.5131C69.4257 54.5771 69.335 54.6091 69.2284 54.6091H68.4604C68.3537 54.6091 68.2737 54.5877 68.2204 54.5451C68.167 54.4917 68.1137 54.4064 68.0604 54.2891C67.8684 53.7664 67.607 53.3984 67.2764 53.1851C66.9457 52.9717 66.535 52.8651 66.0444 52.8651C65.4044 52.8651 64.8817 53.0624 64.4764 53.4571C64.0817 53.8517 63.8684 54.4864 63.8364 55.3611C63.8257 55.7451 63.8257 56.1184 63.8364 56.4811C63.8684 57.3664 64.0817 58.0064 64.4764 58.4011C64.8817 58.7851 65.4044 58.9771 66.0444 58.9771C66.535 58.9771 66.9457 58.8704 67.2764 58.6571C67.607 58.4437 67.8684 58.0757 68.0604 57.5531C68.1137 57.4357 68.167 57.3557 68.2204 57.3131C68.2737 57.2597 68.3537 57.2331 68.4604 57.2331H69.2284C69.335 57.2331 69.4257 57.2651 69.5004 57.3291C69.575 57.3931 69.607 57.4784 69.5964 57.5851C69.5857 57.8091 69.5377 58.0384 69.4524 58.2731C69.367 58.5077 69.2284 58.7477 69.0364 58.9931C68.855 59.2277 68.6257 59.4411 68.3484 59.6331C68.071 59.8144 67.735 59.9637 67.3404 60.0811C66.9564 60.1877 66.519 60.2411 66.0284 60.2411ZM74.8085 60.2411C73.7098 60.2411 72.8352 59.9051 72.1845 59.2331C71.5338 58.5504 71.1765 57.6224 71.1125 56.4491C71.1018 56.3104 71.0965 56.1344 71.0965 55.9211C71.0965 55.6971 71.1018 55.5157 71.1125 55.3771C71.1552 54.6197 71.3312 53.9584 71.6405 53.3931C71.9498 52.8171 72.3712 52.3744 72.9045 52.0651C73.4485 51.7557 74.0832 51.6011 74.8085 51.6011C75.6192 51.6011 76.2965 51.7717 76.8405 52.1131C77.3952 52.4544 77.8165 52.9397 78.1045 53.5691C78.3925 54.1984 78.5365 54.9344 78.5365 55.7771V56.0491C78.5365 56.1664 78.4992 56.2571 78.4245 56.3211C78.3605 56.3851 78.2752 56.4171 78.1685 56.4171H72.6325C72.6325 56.4277 72.6325 56.4491 72.6325 56.4811C72.6325 56.5131 72.6325 56.5397 72.6325 56.5611C72.6538 56.9984 72.7498 57.4091 72.9205 57.7931C73.0912 58.1664 73.3365 58.4704 73.6565 58.7051C73.9765 58.9397 74.3605 59.0571 74.8085 59.0571C75.1925 59.0571 75.5125 58.9984 75.7685 58.8811C76.0245 58.7637 76.2325 58.6357 76.3925 58.4971C76.5525 58.3477 76.6592 58.2357 76.7125 58.1611C76.8085 58.0224 76.8832 57.9424 76.9365 57.9211C76.9898 57.8891 77.0752 57.8731 77.1925 57.8731H77.9605C78.0672 57.8731 78.1525 57.9051 78.2165 57.9691C78.2912 58.0224 78.3232 58.1024 78.3125 58.2091C78.3018 58.3691 78.2165 58.5664 78.0565 58.8011C77.8965 59.0251 77.6672 59.2491 77.3685 59.4731C77.0698 59.6971 76.7072 59.8837 76.2805 60.0331C75.8538 60.1717 75.3632 60.2411 74.8085 60.2411ZM72.6325 55.3131H77.0165V55.2651C77.0165 54.7851 76.9258 54.3584 76.7445 53.9851C76.5738 53.6117 76.3232 53.3184 75.9925 53.1051C75.6618 52.8811 75.2672 52.7691 74.8085 52.7691C74.3498 52.7691 73.9552 52.8811 73.6245 53.1051C73.3045 53.3184 73.0592 53.6117 72.8885 53.9851C72.7178 54.3584 72.6325 54.7851 72.6325 55.2651V55.3131ZM83.9696 60.2411C83.1483 60.2411 82.4603 60.0864 81.9056 59.7771C81.3616 59.4571 80.9456 59.0091 80.6576 58.4331C80.3803 57.8464 80.231 57.1691 80.2096 56.4011C80.199 56.0811 80.1936 55.7611 80.1936 55.4411C80.1936 55.1211 80.199 54.8011 80.2096 54.4811C80.2096 53.5104 80.2896 52.7051 80.4496 52.0651C80.6096 51.4251 80.8496 50.9024 81.1696 50.4971C81.5003 50.0811 81.9163 49.7397 82.4176 49.4731C82.919 49.2064 83.511 48.9771 84.1936 48.7851C84.8763 48.5824 85.655 48.3691 86.5296 48.1451C86.6256 48.1237 86.7163 48.1397 86.8016 48.1931C86.8976 48.2464 86.951 48.3211 86.9616 48.4171L87.0896 49.0731C87.111 49.1691 87.095 49.2544 87.0416 49.3291C86.999 49.4037 86.9296 49.4517 86.8336 49.4731C86.0336 49.6757 85.335 49.8517 84.7376 50.0011C84.1403 50.1504 83.639 50.3264 83.2336 50.5291C82.8283 50.7211 82.503 50.9717 82.2576 51.2811C82.0123 51.5904 81.8416 52.0011 81.7456 52.5131C81.6603 53.0251 81.6336 53.6811 81.6656 54.4811L81.3136 54.3371C81.367 53.9424 81.5323 53.5851 81.8096 53.2651C82.0976 52.9344 82.455 52.6677 82.8816 52.4651C83.3083 52.2624 83.7616 52.1611 84.2416 52.1611C84.9776 52.1611 85.5963 52.3157 86.0976 52.6251C86.6096 52.9344 86.999 53.3557 87.2656 53.8891C87.543 54.4224 87.6976 55.0357 87.7296 55.7291C87.751 56.0917 87.751 56.4064 87.7296 56.6731C87.6976 57.3664 87.5376 57.9851 87.2496 58.5291C86.9616 59.0624 86.5456 59.4837 86.0016 59.7931C85.4576 60.0917 84.7803 60.2411 83.9696 60.2411ZM83.9696 59.0571C84.6416 59.0571 85.175 58.8491 85.5696 58.4331C85.9643 58.0171 86.1723 57.4091 86.1936 56.6091C86.2043 56.5024 86.2096 56.3797 86.2096 56.2411C86.2096 56.1024 86.2043 55.9584 86.1936 55.8091C86.1723 54.9984 85.9643 54.3851 85.5696 53.9691C85.1856 53.5531 84.7003 53.3451 84.1136 53.3451C83.4416 53.3451 82.887 53.5531 82.4496 53.9691C82.0123 54.3851 81.7776 54.9984 81.7456 55.8091C81.735 55.9584 81.7296 56.1024 81.7296 56.2411C81.7296 56.3797 81.735 56.5024 81.7456 56.6091C81.7776 57.4091 81.991 58.0171 82.3856 58.4331C82.7803 58.8491 83.3083 59.0571 83.9696 59.0571ZM94.9305 60.0811C94.8132 60.0811 94.7225 60.0491 94.6585 59.9851C94.5945 59.9104 94.5625 59.8197 94.5625 59.7131V57.1051H92.7225V57.0251C91.7198 57.0251 90.9732 56.7797 90.4825 56.2891C90.0025 55.7877 89.7625 55.1531 89.7625 54.3851C89.7625 53.4891 90.0238 52.8277 90.5465 52.4011C91.0798 51.9744 91.8798 51.7611 92.9465 51.7611H95.6985C95.8052 51.7611 95.8905 51.7984 95.9545 51.8731C96.0292 51.9371 96.0665 52.0224 96.0665 52.1291V59.7131C96.0665 59.8197 96.0292 59.9104 95.9545 59.9851C95.8905 60.0491 95.8052 60.0811 95.6985 60.0811H94.9305ZM89.8585 60.0811C89.7625 60.0811 89.6825 60.0491 89.6185 59.9851C89.5545 59.9211 89.5225 59.8464 89.5225 59.7611C89.5225 59.7184 89.5278 59.6757 89.5385 59.6331C89.5598 59.5797 89.5918 59.5264 89.6345 59.4731L91.5385 56.6571L93.0745 56.7691L91.0425 59.8411C90.9998 59.8944 90.9412 59.9477 90.8665 60.0011C90.7918 60.0544 90.7118 60.0811 90.6265 60.0811H89.8585ZM92.7705 55.9051H94.5785V52.9611H92.8985C92.3012 52.9611 91.8585 53.0677 91.5705 53.2811C91.2932 53.4837 91.1545 53.8517 91.1545 54.3851C91.1545 54.8224 91.2825 55.1851 91.5385 55.4731C91.8052 55.7611 92.2158 55.9051 92.7705 55.9051ZM102.74 60.0811C102.633 60.0811 102.542 60.0491 102.468 59.9851C102.404 59.9104 102.372 59.8197 102.372 59.7131V52.1291C102.372 52.0224 102.404 51.9371 102.468 51.8731C102.542 51.7984 102.633 51.7611 102.74 51.7611H103.508C103.614 51.7611 103.7 51.7984 103.764 51.8731C103.828 51.9371 103.86 52.0224 103.86 52.1291V55.2011H108.228V52.1291C108.228 52.0224 108.26 51.9371 108.324 51.8731C108.398 51.7984 108.489 51.7611 108.596 51.7611H109.348C109.454 51.7611 109.54 51.7984 109.604 51.8731C109.678 51.9371 109.716 52.0224 109.716 52.1291V59.7131C109.716 59.8197 109.678 59.9104 109.604 59.9851C109.54 60.0491 109.454 60.0811 109.348 60.0811H108.596C108.489 60.0811 108.398 60.0491 108.324 59.9851C108.26 59.9104 108.228 59.8197 108.228 59.7131V56.4811H103.86V59.7131C103.86 59.8197 103.828 59.9104 103.764 59.9851C103.7 60.0491 103.614 60.0811 103.508 60.0811H102.74ZM115.434 60.2411C114.335 60.2411 113.46 59.9051 112.81 59.2331C112.159 58.5504 111.802 57.6224 111.738 56.4491C111.727 56.3104 111.722 56.1344 111.722 55.9211C111.722 55.6971 111.727 55.5157 111.738 55.3771C111.78 54.6197 111.956 53.9584 112.266 53.3931C112.575 52.8171 112.996 52.3744 113.53 52.0651C114.074 51.7557 114.708 51.6011 115.434 51.6011C116.244 51.6011 116.922 51.7717 117.466 52.1131C118.02 52.4544 118.442 52.9397 118.73 53.5691C119.018 54.1984 119.161 54.9344 119.161 55.7771V56.0491C119.161 56.1664 119.124 56.2571 119.05 56.3211C118.986 56.3851 118.9 56.4171 118.794 56.4171H113.258C113.258 56.4277 113.258 56.4491 113.258 56.4811C113.258 56.5131 113.258 56.5397 113.258 56.5611C113.279 56.9984 113.375 57.4091 113.546 57.7931C113.716 58.1664 113.962 58.4704 114.282 58.7051C114.602 58.9397 114.986 59.0571 115.434 59.0571C115.818 59.0571 116.138 58.9984 116.394 58.8811C116.65 58.7637 116.858 58.6357 117.018 58.4971C117.178 58.3477 117.284 58.2357 117.338 58.1611C117.434 58.0224 117.508 57.9424 117.562 57.9211C117.615 57.8891 117.7 57.8731 117.818 57.8731H118.586C118.692 57.8731 118.778 57.9051 118.842 57.9691C118.916 58.0224 118.948 58.1024 118.938 58.2091C118.927 58.3691 118.842 58.5664 118.682 58.8011C118.522 59.0251 118.292 59.2491 117.994 59.4731C117.695 59.6971 117.332 59.8837 116.906 60.0331C116.479 60.1717 115.988 60.2411 115.434 60.2411ZM113.258 55.3131H117.642V55.2651C117.642 54.7851 117.551 54.3584 117.37 53.9851C117.199 53.6117 116.948 53.3184 116.618 53.1051C116.287 52.8811 115.892 52.7691 115.434 52.7691C114.975 52.7691 114.58 52.8811 114.25 53.1051C113.93 53.3184 113.684 53.6117 113.514 53.9851C113.343 54.3584 113.258 54.7851 113.258 55.2651V55.3131ZM121.427 60.0811C121.32 60.0811 121.235 60.0491 121.171 59.9851C121.107 59.9211 121.075 59.8357 121.075 59.7291V52.0651C121.075 51.9797 121.107 51.9104 121.171 51.8571C121.245 51.7931 121.32 51.7611 121.395 51.7611H122.211C122.381 51.7611 122.515 51.8464 122.611 52.0171L125.331 57.1051L128.067 52.0171C128.163 51.8464 128.296 51.7611 128.467 51.7611H129.267C129.352 51.7611 129.427 51.7931 129.491 51.8571C129.555 51.9104 129.587 51.9797 129.587 52.0651V59.7291C129.587 59.8357 129.555 59.9211 129.491 59.9851C129.427 60.0491 129.347 60.0811 129.251 60.0811H128.467C128.36 60.0811 128.275 60.0491 128.211 59.9851C128.147 59.9211 128.115 59.8357 128.115 59.7291V53.3451L128.675 53.4091L126.067 58.3371C126.013 58.4437 125.949 58.5397 125.875 58.6251C125.8 58.7104 125.688 58.7531 125.539 58.7531H125.123C124.984 58.7531 124.877 58.7104 124.803 58.6251C124.728 58.5397 124.659 58.4437 124.595 58.3371L122.067 53.6491L122.563 53.6011V59.7291C122.563 59.8357 122.531 59.9211 122.467 59.9851C122.403 60.0491 122.317 60.0811 122.211 60.0811H121.427ZM132.349 60.0811C132.242 60.0811 132.152 60.0491 132.077 59.9851C132.013 59.9104 131.981 59.8197 131.981 59.7131V52.1291C131.981 52.0224 132.013 51.9371 132.077 51.8731C132.152 51.7984 132.242 51.7611 132.349 51.7611H133.117C133.224 51.7611 133.309 51.7984 133.373 51.8731C133.437 51.9371 133.469 52.0224 133.469 52.1291V55.2011H137.837V52.1291C137.837 52.0224 137.869 51.9371 137.933 51.8731C138.008 51.7984 138.098 51.7611 138.205 51.7611H138.957C139.064 51.7611 139.149 51.7984 139.213 51.8731C139.288 51.9371 139.325 52.0224 139.325 52.1291V59.7131C139.325 59.8197 139.288 59.9104 139.213 59.9851C139.149 60.0491 139.064 60.0811 138.957 60.0811H138.205C138.098 60.0811 138.008 60.0491 137.933 59.9851C137.869 59.9104 137.837 59.8197 137.837 59.7131V56.4811H133.469V59.7131C133.469 59.8197 133.437 59.9104 133.373 59.9851C133.309 60.0491 133.224 60.0811 133.117 60.0811H132.349ZM145.139 60.2411C144.328 60.2411 143.651 60.0864 143.107 59.7771C142.563 59.4677 142.147 59.0411 141.859 58.4971C141.571 57.9424 141.411 57.3131 141.379 56.6091C141.368 56.4277 141.363 56.1984 141.363 55.9211C141.363 55.6331 141.368 55.4037 141.379 55.2331C141.411 54.5184 141.571 53.8891 141.859 53.3451C142.158 52.8011 142.579 52.3744 143.123 52.0651C143.667 51.7557 144.339 51.6011 145.139 51.6011C145.939 51.6011 146.611 51.7557 147.155 52.0651C147.699 52.3744 148.115 52.8011 148.403 53.3451C148.702 53.8891 148.867 54.5184 148.899 55.2331C148.91 55.4037 148.915 55.6331 148.915 55.9211C148.915 56.1984 148.91 56.4277 148.899 56.6091C148.867 57.3131 148.707 57.9424 148.419 58.4971C148.131 59.0411 147.715 59.4677 147.171 59.7771C146.627 60.0864 145.95 60.2411 145.139 60.2411ZM145.139 59.0091C145.8 59.0091 146.328 58.8011 146.723 58.3851C147.118 57.9584 147.331 57.3397 147.363 56.5291C147.374 56.3691 147.379 56.1664 147.379 55.9211C147.379 55.6757 147.374 55.4731 147.363 55.3131C147.331 54.5024 147.118 53.8891 146.723 53.4731C146.328 53.0464 145.8 52.8331 145.139 52.8331C144.478 52.8331 143.944 53.0464 143.539 53.4731C143.144 53.8891 142.936 54.5024 142.915 55.3131C142.904 55.4731 142.899 55.6757 142.899 55.9211C142.899 56.1664 142.904 56.3691 142.915 56.5291C142.936 57.3397 143.144 57.9584 143.539 58.3851C143.944 58.8011 144.478 59.0091 145.139 59.0091ZM151.286 60.0811C151.18 60.0811 151.089 60.0491 151.014 59.9851C150.95 59.9104 150.918 59.8197 150.918 59.7131V52.1291C150.918 52.0224 150.95 51.9371 151.014 51.8731C151.089 51.7984 151.18 51.7611 151.286 51.7611H156.07C156.177 51.7611 156.262 51.7984 156.326 51.8731C156.39 51.9371 156.422 52.0224 156.422 52.1291V52.6731C156.422 52.7797 156.39 52.8704 156.326 52.9451C156.262 53.0091 156.177 53.0411 156.07 53.0411H152.406V59.7131C152.406 59.8197 152.374 59.9104 152.31 59.9851C152.246 60.0491 152.161 60.0811 152.054 60.0811H151.286ZM161.201 60.2411C160.391 60.2411 159.713 60.0864 159.169 59.7771C158.625 59.4677 158.209 59.0411 157.921 58.4971C157.633 57.9424 157.473 57.3131 157.441 56.6091C157.431 56.4277 157.425 56.1984 157.425 55.9211C157.425 55.6331 157.431 55.4037 157.441 55.2331C157.473 54.5184 157.633 53.8891 157.921 53.3451C158.22 52.8011 158.641 52.3744 159.185 52.0651C159.729 51.7557 160.401 51.6011 161.201 51.6011C162.001 51.6011 162.673 51.7557 163.217 52.0651C163.761 52.3744 164.177 52.8011 164.465 53.3451C164.764 53.8891 164.929 54.5184 164.961 55.2331C164.972 55.4037 164.977 55.6331 164.977 55.9211C164.977 56.1984 164.972 56.4277 164.961 56.6091C164.929 57.3131 164.769 57.9424 164.481 58.4971C164.193 59.0411 163.777 59.4677 163.233 59.7771C162.689 60.0864 162.012 60.2411 161.201 60.2411ZM161.201 59.0091C161.863 59.0091 162.391 58.8011 162.785 58.3851C163.18 57.9584 163.393 57.3397 163.425 56.5291C163.436 56.3691 163.441 56.1664 163.441 55.9211C163.441 55.6757 163.436 55.4731 163.425 55.3131C163.393 54.5024 163.18 53.8891 162.785 53.4731C162.391 53.0464 161.863 52.8331 161.201 52.8331C160.54 52.8331 160.007 53.0464 159.601 53.4731C159.207 53.8891 158.999 54.5024 158.977 55.3131C158.967 55.4731 158.961 55.6757 158.961 55.9211C158.961 56.1664 158.967 56.3691 158.977 56.5291C158.999 57.3397 159.207 57.9584 159.601 58.3851C160.007 58.8011 160.54 59.0091 161.201 59.0091ZM170.503 60.0811C170.396 60.0811 170.305 60.0437 170.231 59.9691C170.156 59.8944 170.119 59.8037 170.119 59.6971V59.1051C170.119 58.8811 170.231 58.7637 170.455 58.7531C170.785 58.7424 171.063 58.5877 171.287 58.2891C171.511 57.9797 171.681 57.4944 171.799 56.8331C171.916 56.1611 171.975 55.2757 171.975 54.1771V52.1291C171.975 52.0224 172.007 51.9371 172.071 51.8731C172.145 51.7984 172.236 51.7611 172.343 51.7611H177.431C177.537 51.7611 177.623 51.7984 177.687 51.8731C177.761 51.9371 177.799 52.0224 177.799 52.1291V59.7131C177.799 59.8197 177.761 59.9104 177.687 59.9851C177.623 60.0491 177.537 60.0811 177.431 60.0811H176.663C176.556 60.0811 176.471 60.0491 176.407 59.9851C176.343 59.9104 176.311 59.8197 176.311 59.7131V53.0411H173.431V54.3531C173.431 55.3771 173.372 56.2571 173.255 56.9931C173.137 57.7184 172.956 58.3104 172.711 58.7691C172.476 59.2171 172.172 59.5477 171.799 59.7611C171.436 59.9744 171.004 60.0811 170.503 60.0811ZM180.568 63.1211C180.451 63.1211 180.36 63.0837 180.296 63.0091C180.232 62.9451 180.2 62.8597 180.2 62.7531V62.2091C180.2 62.1024 180.232 62.0117 180.296 61.9371C180.36 61.8731 180.451 61.8411 180.568 61.8411H180.984C181.229 61.8411 181.427 61.7931 181.576 61.6971C181.725 61.6011 181.859 61.4357 181.976 61.2011C182.104 60.9771 182.253 60.6677 182.424 60.2731L185.896 52.0331C185.928 51.9477 185.971 51.8837 186.024 51.8411C186.088 51.7877 186.179 51.7611 186.296 51.7611H187C187.096 51.7611 187.176 51.7931 187.24 51.8571C187.304 51.9211 187.336 51.9957 187.336 52.0811C187.336 52.1237 187.331 52.1664 187.32 52.2091C187.309 52.2411 187.288 52.2944 187.256 52.3691L184.216 59.5691C184.056 59.9531 183.88 60.3531 183.688 60.7691C183.507 61.1851 183.299 61.5691 183.064 61.9211C182.84 62.2837 182.573 62.5717 182.264 62.7851C181.955 63.0091 181.592 63.1211 181.176 63.1211H180.568ZM182.792 59.8411L179.56 52.3691C179.507 52.2411 179.48 52.1504 179.48 52.0971C179.491 52.0011 179.528 51.9211 179.592 51.8571C179.656 51.7931 179.731 51.7611 179.816 51.7611H180.568C180.685 51.7611 180.771 51.7877 180.824 51.8411C180.888 51.8944 180.936 51.9584 180.968 52.0331L183.624 58.3851L182.792 59.8411ZM194.198 60.0811C194.08 60.0811 193.99 60.0491 193.926 59.9851C193.862 59.9104 193.83 59.8197 193.83 59.7131V56.7051C193.542 56.9717 193.19 57.1691 192.774 57.2971C192.368 57.4144 191.904 57.4731 191.382 57.4731C190.443 57.4731 189.712 57.2651 189.19 56.8491C188.678 56.4331 188.422 55.7611 188.422 54.8331V52.1291C188.422 52.0224 188.454 51.9371 188.518 51.8731C188.592 51.7984 188.683 51.7611 188.79 51.7611H189.574C189.68 51.7611 189.766 51.7984 189.83 51.8731C189.904 51.9371 189.942 52.0224 189.942 52.1291V54.7371C189.942 55.2171 190.08 55.5691 190.358 55.7931C190.646 56.0171 191.083 56.1291 191.67 56.1291C192.32 56.1291 192.843 56.0491 193.238 55.8891C193.632 55.7184 193.83 55.4197 193.83 54.9931V52.1291C193.83 52.0224 193.862 51.9371 193.926 51.8731C193.99 51.7984 194.08 51.7611 194.198 51.7611H194.998C195.104 51.7611 195.19 51.7984 195.254 51.8731C195.328 51.9371 195.366 52.0224 195.366 52.1291V59.7131C195.366 59.8197 195.328 59.9104 195.254 59.9851C195.19 60.0491 195.104 60.0811 194.998 60.0811H194.198ZM198.115 60.0811C198.008 60.0811 197.917 60.0491 197.843 59.9851C197.779 59.9104 197.747 59.8197 197.747 59.7131V52.1291C197.747 52.0224 197.779 51.9371 197.843 51.8731C197.917 51.7984 198.008 51.7611 198.115 51.7611H198.851C198.957 51.7611 199.043 51.7984 199.107 51.8731C199.181 51.9371 199.219 52.0224 199.219 52.1291V58.8011H202.147V52.1291C202.147 52.0224 202.179 51.9371 202.243 51.8731C202.317 51.7984 202.408 51.7611 202.515 51.7611H203.187C203.304 51.7611 203.395 51.7984 203.459 51.8731C203.523 51.9371 203.555 52.0224 203.555 52.1291V58.8011H206.483V52.1291C206.483 52.0224 206.515 51.9371 206.579 51.8731C206.653 51.7984 206.744 51.7611 206.851 51.7611H207.587C207.693 51.7611 207.779 51.7984 207.843 51.8731C207.917 51.9371 207.955 52.0224 207.955 52.1291V59.7131C207.955 59.8197 207.917 59.9104 207.843 59.9851C207.779 60.0491 207.693 60.0811 207.587 60.0811H198.115ZM213.652 60.2411C212.554 60.2411 211.679 59.9051 211.028 59.2331C210.378 58.5504 210.02 57.6224 209.956 56.4491C209.946 56.3104 209.94 56.1344 209.94 55.9211C209.94 55.6971 209.946 55.5157 209.956 55.3771C209.999 54.6197 210.175 53.9584 210.484 53.3931C210.794 52.8171 211.215 52.3744 211.748 52.0651C212.292 51.7557 212.927 51.6011 213.652 51.6011C214.463 51.6011 215.14 51.7717 215.684 52.1131C216.239 52.4544 216.66 52.9397 216.948 53.5691C217.236 54.1984 217.38 54.9344 217.38 55.7771V56.0491C217.38 56.1664 217.343 56.2571 217.268 56.3211C217.204 56.3851 217.119 56.4171 217.012 56.4171H211.476C211.476 56.4277 211.476 56.4491 211.476 56.4811C211.476 56.5131 211.476 56.5397 211.476 56.5611C211.498 56.9984 211.594 57.4091 211.764 57.7931C211.935 58.1664 212.18 58.4704 212.5 58.7051C212.82 58.9397 213.204 59.0571 213.652 59.0571C214.036 59.0571 214.356 58.9984 214.612 58.8811C214.868 58.7637 215.076 58.6357 215.236 58.4971C215.396 58.3477 215.503 58.2357 215.556 58.1611C215.652 58.0224 215.727 57.9424 215.78 57.9211C215.834 57.8891 215.919 57.8731 216.036 57.8731H216.804C216.911 57.8731 216.996 57.9051 217.06 57.9691C217.135 58.0224 217.167 58.1024 217.156 58.2091C217.146 58.3691 217.06 58.5664 216.9 58.8011C216.74 59.0251 216.511 59.2491 216.212 59.4731C215.914 59.6971 215.551 59.8837 215.124 60.0331C214.698 60.1717 214.207 60.2411 213.652 60.2411ZM211.476 55.3131H215.86V55.2651C215.86 54.7851 215.77 54.3584 215.588 53.9851C215.418 53.6117 215.167 53.3184 214.836 53.1051C214.506 52.8811 214.111 52.7691 213.652 52.7691C213.194 52.7691 212.799 52.8811 212.468 53.1051C212.148 53.3184 211.903 53.6117 211.732 53.9851C211.562 54.3584 211.476 54.7851 211.476 55.2651V55.3131ZM219.693 57.4251C219.587 57.4251 219.496 57.3931 219.421 57.3291C219.357 57.2544 219.325 57.1637 219.325 57.0571V49.2491C219.325 49.1424 219.357 49.0571 219.421 48.9931C219.496 48.9184 219.587 48.8811 219.693 48.8811H220.445C220.552 48.8811 220.637 48.9184 220.701 48.9931C220.765 49.0571 220.797 49.1424 220.797 49.2491V57.0571C220.797 57.1637 220.765 57.2544 220.701 57.3291C220.637 57.3931 220.552 57.4251 220.445 57.4251H219.693ZM219.549 60.0811C219.443 60.0811 219.352 60.0491 219.277 59.9851C219.213 59.9104 219.181 59.8197 219.181 59.7131V58.7051C219.181 58.5877 219.213 58.4971 219.277 58.4331C219.352 58.3584 219.443 58.3211 219.549 58.3211H220.573C220.68 58.3211 220.765 58.3584 220.829 58.4331C220.904 58.4971 220.941 58.5877 220.941 58.7051V59.7131C220.941 59.8197 220.904 59.9104 220.829 59.9851C220.765 60.0491 220.68 60.0811 220.573 60.0811H219.549Z" fill="white"/>
</g>
<defs>
<clipPath id="clip0_213_886">
<rect width="225" height="60" fill="white" transform="translate(0.5 0.0810547)"/>
</clipPath>
</defs>
</svg>
