<svg width="120" height="36" viewBox="0 0 120 36" fill="none" xmlns="http://www.w3.org/2000/svg">
<path d="M6.64348 20.4079C7.17864 20.4079 7.6165 20.3663 7.95705 20.283C8.31385 20.1831 8.5976 20.0583 8.80844 19.9084C9.01929 19.7419 9.16524 19.5505 9.2463 19.334C9.32736 19.1176 9.36793 18.8762 9.36793 18.6098C9.36793 18.0437 9.10843 17.5775 8.58951 17.2112C8.0706 16.8283 7.17864 16.4204 5.91372 15.9875C5.36235 15.7877 4.81098 15.563 4.2596 15.3132C3.70822 15.0468 3.21361 14.7221 2.77575 14.3392C2.33789 13.9396 1.98112 13.4651 1.70544 12.9157C1.42975 12.3496 1.2919 11.667 1.2919 10.8678C1.2919 10.0687 1.43786 9.35273 1.72976 8.72008C2.02167 8.07076 2.4352 7.52133 2.97035 7.0718C3.50551 6.62227 4.15419 6.28095 4.91638 6.04787C5.67858 5.79813 6.53808 5.67326 7.49487 5.67326C8.63008 5.67326 9.61118 5.79813 10.4382 6.04787C11.2653 6.29761 11.9464 6.57232 12.4816 6.87201L11.3869 9.94381C10.9167 9.69407 10.3896 9.4776 9.80578 9.29449C9.23821 9.09469 8.54895 8.9948 7.73813 8.9948C6.82998 8.9948 6.1732 9.12797 5.76777 9.39438C5.37857 9.64412 5.18396 10.0354 5.18396 10.5682C5.18396 10.8845 5.25694 11.1509 5.40289 11.3673C5.54884 11.5838 5.75155 11.7836 6.01103 11.9667C6.28671 12.1332 6.59483 12.2914 6.93539 12.4412C7.29218 12.5744 7.68139 12.7159 8.10301 12.8658C8.97872 13.1987 9.74089 13.5318 10.3896 13.8647C11.0383 14.1811 11.5734 14.5557 11.9951 14.9886C12.4329 15.4214 12.7572 15.9293 12.9681 16.512C13.1789 17.0947 13.2843 17.8023 13.2843 18.6348C13.2843 20.2498 12.7329 21.5068 11.6302 22.4058C10.5275 23.2882 8.86518 23.7294 6.64348 23.7294C5.8975 23.7294 5.22451 23.6795 4.62448 23.5796C4.02445 23.4964 3.48929 23.3881 3.01901 23.2549C2.56493 23.1218 2.16762 22.9802 1.82706 22.8304C1.50273 22.6805 1.22703 22.539 1 22.4058L2.07032 19.3091C2.57304 19.5921 3.18928 19.8502 3.91904 20.0832C4.66502 20.2997 5.57317 20.4079 6.64348 20.4079ZM15.8393 6.9719L19.4637 6.37253V10.2435H23.818V13.3403H19.4637V17.9605C19.4637 18.743 19.5935 19.3673 19.8529 19.8335C20.1286 20.2997 20.6719 20.5328 21.4827 20.5328C21.872 20.5328 22.2692 20.4995 22.6747 20.4329C23.0963 20.3497 23.4774 20.2414 23.818 20.1082L24.3288 23.0052C23.891 23.1883 23.4044 23.3465 22.8693 23.4797C22.3341 23.6129 21.6773 23.6795 20.8989 23.6795C19.9097 23.6795 19.0907 23.5463 18.4421 23.2799C17.7934 22.9969 17.2745 22.6139 16.8853 22.1311C16.496 21.6316 16.2203 21.0323 16.0582 20.333C15.9122 19.6337 15.8393 18.8595 15.8393 18.0104V6.9719ZM37.6916 22.9303C37.0754 23.1134 36.2807 23.2799 35.3077 23.4298C34.3347 23.5963 33.313 23.6795 32.2427 23.6795C31.1562 23.6795 30.248 23.5297 29.5183 23.23C28.8048 22.9303 28.2371 22.514 27.8155 21.9813C27.3939 21.4318 27.0938 20.7825 26.9155 20.0333C26.7371 19.2841 26.6479 18.4599 26.6479 17.5609V10.2435H30.2724V17.1113C30.2724 18.3101 30.4264 19.1759 30.7345 19.7086C31.0427 20.2414 31.6183 20.5078 32.4616 20.5078C32.7211 20.5078 32.9968 20.4995 33.2887 20.4828C33.5806 20.4496 33.8401 20.4162 34.0671 20.3829V10.2435H37.6916V22.9303ZM44.1832 16.7118C44.1832 17.8606 44.4346 18.7846 44.9373 19.4839C45.44 20.1831 46.186 20.5328 47.1753 20.5328C47.4996 20.5328 47.7996 20.5245 48.0753 20.5078C48.351 20.4745 48.578 20.4412 48.7564 20.4079V13.64C48.5293 13.4901 48.2293 13.3652 47.8564 13.2653C47.4996 13.1655 47.1347 13.1155 46.7617 13.1155C45.0427 13.1155 44.1832 14.3143 44.1832 16.7118ZM52.3809 22.9553C52.0565 23.0552 51.6835 23.155 51.2619 23.2549C50.8402 23.3382 50.3943 23.4131 49.924 23.4797C49.4699 23.5463 48.9997 23.5963 48.5132 23.6296C48.0428 23.6795 47.5888 23.7045 47.1509 23.7045C46.0968 23.7045 45.1563 23.5463 44.3292 23.23C43.5021 22.9136 42.8048 22.4641 42.2372 21.8814C41.6696 21.282 41.2317 20.5661 40.9236 19.7336C40.6317 18.8845 40.4858 17.9355 40.4858 16.8866C40.4858 15.821 40.6155 14.8637 40.875 14.0146C41.1344 13.1488 41.5075 12.4162 41.994 11.8169C42.4805 11.2175 43.0724 10.7596 43.7697 10.4433C44.4832 10.1269 45.2941 9.96878 46.2023 9.96878C46.7049 9.96878 47.1509 10.0187 47.5401 10.1186C47.9455 10.2185 48.351 10.3601 48.7564 10.5432V4.59938L52.3809 4V22.9553ZM66.7545 10.2435C66.0248 12.7742 65.2625 15.1467 64.4679 17.3611C63.6733 19.5755 62.8057 21.7232 61.8651 23.8044C61.5246 24.5536 61.184 25.1862 60.8434 25.7024C60.5029 26.2351 60.1299 26.6681 59.7245 27.001C59.3191 27.3507 58.8569 27.6004 58.338 27.7503C57.8352 27.9168 57.2433 28 56.5622 28C55.9946 28 55.4676 27.9417 54.9811 27.8252C54.5107 27.7253 54.1215 27.6087 53.8134 27.4755L54.4459 24.5036C54.8189 24.6368 55.1513 24.7284 55.4432 24.7784C55.7351 24.8283 56.0432 24.8533 56.3676 24.8533C57.0162 24.8533 57.5109 24.6702 57.8515 24.3038C58.2082 23.9542 58.5082 23.463 58.7515 22.8304C57.9244 21.1654 57.0974 19.3008 56.2703 17.2362C55.4432 15.1551 54.6648 12.8241 53.9351 10.2435H57.7785C57.9406 10.8928 58.1271 11.6004 58.338 12.3663C58.565 13.1155 58.8001 13.8814 59.0434 14.6639C59.2866 15.4298 59.5299 16.179 59.7731 16.9115C60.0326 17.6441 60.2758 18.3101 60.5029 18.9095C60.7137 18.3101 60.9326 17.6441 61.1597 16.9115C61.3867 16.179 61.6056 15.4298 61.8165 14.6639C62.0435 13.8814 62.2543 13.1155 62.4489 12.3663C62.6597 11.6004 62.8462 10.8928 63.0084 10.2435H66.7545ZM76.4086 13.5401C76.0845 13.4568 75.7032 13.3735 75.2653 13.2903C74.8275 13.1904 74.3574 13.1405 73.8545 13.1405C73.6277 13.1405 73.3515 13.1655 73.0274 13.2154C72.719 13.2487 72.4844 13.2903 72.322 13.3403V23.3798H68.6975V10.9428C69.3462 10.7097 70.1084 10.4932 70.9841 10.2934C71.8762 10.077 72.865 9.96878 73.9518 9.96878C74.1464 9.96878 74.3818 9.98546 74.6572 10.0187C74.9326 10.0354 75.2088 10.0687 75.4843 10.1186C75.7597 10.1519 76.0359 10.2018 76.3113 10.2685C76.5868 10.3184 76.8222 10.385 77.0168 10.4683L76.4086 13.5401ZM82.5844 23.3798H78.9599V10.2435H82.5844V23.3798ZM82.925 6.44745C82.925 7.13007 82.706 7.67118 82.2682 8.07076C81.8461 8.45367 81.3438 8.64516 80.76 8.64516C80.1762 8.64516 79.6654 8.45367 79.2275 8.07076C78.8054 7.67118 78.595 7.13007 78.595 6.44745C78.595 5.76483 78.8054 5.23205 79.2275 4.84912C79.6654 4.44953 80.1762 4.24974 80.76 4.24974C81.3438 4.24974 81.8461 4.44953 82.2682 4.84912C82.706 5.23205 82.925 5.76483 82.925 6.44745ZM96.9135 22.9303C96.2975 23.1134 95.5026 23.2799 94.5296 23.4298C93.5566 23.5963 92.5349 23.6795 91.4646 23.6795C90.3778 23.6795 89.4699 23.5297 88.7402 23.23C88.0268 22.9303 87.4588 22.514 87.0374 21.9813C86.616 21.4318 86.3155 20.7825 86.1373 20.0333C85.9592 19.2841 85.8698 18.4599 85.8698 17.5609V10.2435H89.4942V17.1113C89.4942 18.3101 89.6481 19.1759 89.9564 19.7086C90.2648 20.2414 90.84 20.5078 91.6835 20.5078C91.9432 20.5078 92.2187 20.4995 92.5106 20.4828C92.8025 20.4496 93.0622 20.4162 93.289 20.3829V10.2435H96.9135V22.9303ZM107.345 16.4121C107.345 15.2133 107.192 14.3642 106.883 13.8647C106.591 13.3652 106.081 13.1155 105.351 13.1155C105.124 13.1155 104.889 13.1322 104.645 13.1655C104.402 13.1821 104.167 13.2071 103.94 13.2404V23.3798H100.315V10.693C100.624 10.6098 100.981 10.5265 101.386 10.4433C101.808 10.3434 102.246 10.2602 102.699 10.1935C103.17 10.1103 103.648 10.052 104.135 10.0187C104.621 9.96878 105.1 9.94381 105.57 9.94381C106.494 9.94381 107.24 10.0687 107.808 10.3184C108.391 10.5515 108.87 10.8346 109.243 11.1675C109.762 10.7846 110.354 10.4849 111.019 10.2685C111.7 10.052 112.324 9.94381 112.892 9.94381C113.913 9.94381 114.749 10.0937 115.397 10.3933C116.063 10.6764 116.589 11.0843 116.978 11.6171C117.368 12.1498 117.635 12.7825 117.781 13.5151C117.927 14.2476 118 15.0635 118 15.9625V23.3798H114.376V16.4121C114.376 15.2133 114.222 14.3642 113.913 13.8647C113.621 13.3652 113.111 13.1155 112.381 13.1155C112.186 13.1155 111.911 13.1655 111.554 13.2653C111.213 13.3652 110.93 13.4901 110.702 13.64C110.816 14.0229 110.889 14.4308 110.921 14.8637C110.954 15.2799 110.97 15.7295 110.97 16.2123V23.3798H107.345V16.4121Z" fill="#3A62C8"/>
<path d="M37.7459 29.1018V33.4465H36.7039V29.9408H35.042V33.4465H34V29.1018H37.7459ZM42.7479 29.1018C42.2829 30.7522 41.7433 32.2475 41.129 33.5877C41.0142 33.837 40.8965 34.0502 40.7759 34.2274C40.6554 34.4046 40.5205 34.5514 40.3712 34.6677C40.222 34.784 40.0555 34.8671 39.8718 34.9169C39.6881 34.9723 39.4756 35 39.2345 35C39.0738 35 38.913 34.9834 38.7523 34.9502C38.5973 34.9169 38.4796 34.8809 38.3992 34.8422L38.5887 34.0363C38.7953 34.1139 38.9991 34.1526 39.2001 34.1526C39.4699 34.1526 39.6794 34.089 39.8287 33.9616C39.9837 33.8397 40.1186 33.6487 40.2334 33.3884C39.9062 32.7792 39.5905 32.1146 39.2862 31.3946C38.9877 30.6746 38.7207 29.9103 38.4853 29.1018H39.5962C39.6536 29.3344 39.7225 29.5864 39.8029 29.8577C39.889 30.1291 39.9808 30.406 40.0784 30.6885C40.176 30.9654 40.2794 31.2423 40.3884 31.5192C40.4975 31.7961 40.6066 32.0537 40.7157 32.2918C40.8994 31.7989 41.0716 31.2755 41.2323 30.7217C41.3931 30.1623 41.5395 29.6224 41.6715 29.1018H42.7479ZM47.0806 29.9408H45.6253V33.4465H44.5833V29.9408H43.1366V29.1018H47.0806V29.9408ZM48.9008 30.7051C48.9869 30.6829 49.1132 30.6636 49.2797 30.6469C49.4462 30.6303 49.6126 30.622 49.7791 30.622C50.0375 30.622 50.2786 30.6497 50.5025 30.7051C50.7321 30.7605 50.9302 30.8491 51.0967 30.9709C51.2631 31.0872 51.3952 31.2395 51.4928 31.4278C51.5904 31.6106 51.6392 31.8294 51.6392 32.0841C51.6392 32.3444 51.5932 32.5659 51.5014 32.7487C51.4095 32.9315 51.2775 33.081 51.1053 33.1973C50.933 33.3136 50.7264 33.3994 50.4853 33.4548C50.2499 33.5102 49.9858 33.5379 49.693 33.5379C49.3543 33.5379 49.0386 33.5213 48.7458 33.4881C48.453 33.4548 48.1573 33.405 47.8588 33.3385V29.1018H48.9008V30.7051ZM49.6672 32.7487C49.96 32.7487 50.1867 32.6961 50.3475 32.5909C50.514 32.4801 50.5972 32.3056 50.5972 32.0675C50.5972 31.9457 50.5685 31.8432 50.5111 31.7601C50.4594 31.6771 50.3877 31.6106 50.2958 31.5607C50.2097 31.5054 50.1064 31.4666 49.9858 31.4444C49.8652 31.4223 49.7389 31.4112 49.6069 31.4112C49.4863 31.4112 49.36 31.4168 49.228 31.4278C49.096 31.4334 48.9869 31.4472 48.9008 31.4694V32.7072C48.9754 32.7182 49.0845 32.7293 49.228 32.7404C49.3773 32.7459 49.5237 32.7487 49.6672 32.7487ZM55.6368 30.8463C55.7688 30.7189 55.9123 30.5777 56.0673 30.4226C56.2223 30.262 56.3745 30.1014 56.5237 29.9408C56.6787 29.7802 56.8251 29.6279 56.9629 29.4839C57.1007 29.3344 57.2155 29.207 57.3073 29.1018H58.5302C58.4039 29.2458 58.2575 29.4036 58.091 29.5753C57.9302 29.747 57.7609 29.9242 57.5829 30.107C57.4107 30.2842 57.2385 30.4586 57.0662 30.6303C56.8997 30.7965 56.7476 30.946 56.6098 31.0789C56.7878 31.2229 56.9715 31.3918 57.161 31.5857C57.3561 31.774 57.5456 31.9761 57.7293 32.1921C57.9188 32.4026 58.0938 32.6186 58.2546 32.8401C58.4153 33.0561 58.5502 33.2582 58.6593 33.4465H57.4537C57.3447 33.2804 57.2155 33.1059 57.0662 32.9232C56.9227 32.7404 56.7706 32.5632 56.6098 32.3915C56.4491 32.2143 56.2855 32.0481 56.119 31.893C55.9525 31.738 55.7918 31.6051 55.6368 31.4943V33.4465H54.5948V29.1018H55.6368V30.8463ZM63.1886 29.9325C63.1828 30.1762 63.1742 30.4309 63.1627 30.6968C63.1513 30.9571 63.1226 31.2146 63.0766 31.4694C63.0364 31.7241 62.9704 31.9678 62.8786 32.2004C62.7867 32.433 62.6575 32.6435 62.4911 32.8318C62.3303 33.0145 62.1265 33.1696 61.8797 33.297C61.6385 33.4188 61.3429 33.4964 60.9927 33.5296L60.8463 32.6906C61.1391 32.6352 61.3659 32.5466 61.5266 32.4247C61.6873 32.2973 61.8108 32.1367 61.8969 31.9429C61.9658 31.7989 62.0174 31.6355 62.0519 31.4528C62.0921 31.27 62.1208 31.0789 62.138 30.8795C62.161 30.6746 62.1753 30.4669 62.1811 30.2565C62.1868 30.046 62.1897 29.8411 62.1897 29.6417V29.1018H65.3758V33.4465H64.3339V29.9325H63.1886ZM70.3815 29.1018C69.9164 30.7522 69.3768 32.2475 68.7625 33.5877C68.6477 33.837 68.53 34.0502 68.4095 34.2274C68.2889 34.4046 68.154 34.5514 68.0047 34.6677C67.8555 34.784 67.689 34.8671 67.5053 34.9169C67.3216 34.9723 67.1092 35 66.868 35C66.7073 35 66.5466 34.9834 66.3858 34.9502C66.2308 34.9169 66.1131 34.8809 66.0327 34.8422L66.2222 34.0363C66.4289 34.1139 66.6327 34.1526 66.8336 34.1526C67.1034 34.1526 67.313 34.089 67.4622 33.9616C67.6172 33.8397 67.7521 33.6487 67.867 33.3884C67.5397 32.7792 67.224 32.1146 66.9197 31.3946C66.6212 30.6746 66.3542 29.9103 66.1189 29.1018H67.2297C67.2871 29.3344 67.356 29.5864 67.4364 29.8577C67.5225 30.1291 67.6144 30.406 67.7119 30.6885C67.8095 30.9654 67.9129 31.2423 68.022 31.5192C68.131 31.7961 68.2401 32.0537 68.3492 32.2918C68.5329 31.7989 68.7051 31.2755 68.8659 30.7217C69.0266 30.1623 69.173 29.6224 69.305 29.1018H70.3815ZM71.9191 30.4476C71.9191 30.7134 71.9966 30.9017 72.1516 31.0125C72.3124 31.1177 72.5305 31.1703 72.8061 31.1703C72.9381 31.1703 73.0673 31.1648 73.1936 31.1537C73.3257 31.1371 73.4405 31.1177 73.5381 31.0955V29.1018H74.58V33.4465H73.5381V31.893C73.4347 31.9097 73.2998 31.9318 73.1333 31.9595C72.9669 31.9817 72.8176 31.9927 72.6856 31.9927C72.4157 31.9927 72.1689 31.9678 71.9449 31.918C71.7268 31.8681 71.5373 31.785 71.3766 31.6687C71.2158 31.5469 71.0924 31.3891 71.0063 31.1952C70.9202 30.9958 70.8771 30.7494 70.8771 30.4559V29.1018H71.9191V30.4476ZM75.9047 29.1018H76.9467V32.6241H78.359V29.1018H79.4009V32.6241H80.8132V29.1018H81.8551V33.4465H75.9047V29.1018ZM82.9287 31.2949C82.9287 30.9128 82.9861 30.5777 83.1009 30.2897C83.2215 30.0017 83.3794 29.7636 83.5745 29.5753C83.7697 29.3814 83.9936 29.2375 84.2462 29.1433C84.4988 29.0436 84.7572 28.9938 85.0212 28.9938C85.6413 28.9938 86.1235 29.1793 86.4679 29.5504C86.8181 29.9214 86.9932 30.4753 86.9932 31.2118C86.9932 31.2672 86.9904 31.3309 86.9846 31.4029C86.9846 31.4694 86.9817 31.5303 86.976 31.5857H84.0051C84.0338 31.9346 84.1601 32.206 84.384 32.3998C84.6136 32.5881 84.9437 32.6822 85.3743 32.6822C85.6269 32.6822 85.8565 32.6601 86.0632 32.6158C86.2756 32.5715 86.4421 32.5244 86.5627 32.4746L86.7004 33.297C86.643 33.3247 86.5627 33.3551 86.4593 33.3884C86.3617 33.4161 86.2469 33.441 86.1149 33.4631C85.9886 33.4908 85.8508 33.513 85.7015 33.5296C85.5523 33.5462 85.4001 33.5545 85.2451 33.5545C84.849 33.5545 84.5046 33.4991 84.2118 33.3884C83.919 33.2721 83.6779 33.1142 83.4884 32.9148C83.299 32.7099 83.1583 32.4718 83.0665 32.2004C82.9746 31.9235 82.9287 31.6217 82.9287 31.2949ZM85.9513 30.8463C85.9513 30.7079 85.9312 30.5777 85.891 30.4559C85.8508 30.3285 85.7905 30.2205 85.7101 30.1319C85.6355 30.0377 85.5408 29.9657 85.426 29.9159C85.3169 29.8605 85.1849 29.8328 85.0299 29.8328C84.8691 29.8328 84.7285 29.8633 84.6079 29.9242C84.4873 29.9796 84.384 30.0543 84.2979 30.1485C84.2175 30.2426 84.1544 30.3506 84.1084 30.4725C84.0625 30.5943 84.0309 30.7189 84.0137 30.8463H85.9513ZM89.1489 30.5971C89.1317 30.8297 89.1145 31.0734 89.0973 31.3281C89.08 31.5774 89.0657 31.8266 89.0542 32.0758C89.0427 32.325 89.0312 32.5659 89.0198 32.7985C89.0083 33.0312 88.9997 33.2471 88.9939 33.4465H87.9864C87.9979 33.1253 88.0151 32.7792 88.0381 32.4081C88.061 32.0315 88.0869 31.6521 88.1156 31.27C88.15 30.8823 88.1845 30.5029 88.2189 30.1319C88.2533 29.7608 88.2907 29.4174 88.3308 29.1018H89.235C89.4532 29.4396 89.6742 29.8384 89.8981 30.298C90.122 30.7522 90.3717 31.27 90.6473 31.8515C90.9343 31.2589 91.1955 30.7245 91.4309 30.2482C91.6663 29.7664 91.8758 29.3842 92.0595 29.1018H92.9723C93.0125 29.4174 93.0498 29.7608 93.0843 30.1319C93.1245 30.5029 93.1589 30.8823 93.1876 31.27C93.2163 31.6521 93.2422 32.0315 93.2651 32.4081C93.2881 32.7792 93.3053 33.1253 93.3168 33.4465H92.2834C92.272 32.9924 92.2519 32.5244 92.2232 32.0426C92.2002 31.5552 92.1715 31.0734 92.137 30.5971C92.0509 30.7632 91.9562 30.9488 91.8529 31.1537C91.7553 31.3586 91.6577 31.5663 91.5601 31.7767C91.4625 31.9872 91.3678 32.1921 91.2759 32.3915C91.1841 32.5853 91.1037 32.757 91.0348 32.9065H90.2598C90.1909 32.757 90.1076 32.5826 90.01 32.3832C89.9182 32.1838 89.8235 31.9789 89.7259 31.7684C89.6283 31.558 89.5278 31.3531 89.4245 31.1537C89.3269 30.9488 89.235 30.7632 89.1489 30.5971ZM98.2087 29.1018C97.7437 30.7522 97.2041 32.2475 96.5898 33.5877C96.475 33.837 96.3573 34.0502 96.2367 34.2274C96.1162 34.4046 95.9813 34.5514 95.832 34.6677C95.6827 34.784 95.5163 34.8671 95.3326 34.9169C95.1488 34.9723 94.9364 35 94.6953 35C94.5346 35 94.3738 34.9834 94.2131 34.9502C94.0581 34.9169 93.9404 34.8809 93.86 34.8422L94.0495 34.0363C94.2561 34.1139 94.4599 34.1526 94.6609 34.1526C94.9307 34.1526 95.1402 34.089 95.2895 33.9616C95.4445 33.8397 95.5794 33.6487 95.6942 33.3884C95.367 32.7792 95.0513 32.1146 94.747 31.3946C94.4485 30.6746 94.1815 29.9103 93.9461 29.1018H95.057C95.1144 29.3344 95.1833 29.5864 95.2637 29.8577C95.3498 30.1291 95.4416 30.406 95.5392 30.6885C95.6368 30.9654 95.7402 31.2423 95.8492 31.5192C95.9583 31.7961 96.0674 32.0537 96.1765 32.2918C96.3602 31.7989 96.5324 31.2755 96.6931 30.7217C96.8539 30.1623 97.0003 29.6224 97.1323 29.1018H98.2087ZM100.757 31.2783C100.757 30.9571 100.809 30.658 100.912 30.3811C101.015 30.0986 101.162 29.855 101.351 29.6501C101.546 29.4451 101.782 29.2845 102.057 29.1682C102.333 29.0519 102.643 28.9938 102.987 28.9938C103.412 28.9938 103.814 29.0685 104.193 29.2181L103.969 30.0405C103.848 29.9907 103.711 29.9491 103.556 29.9159C103.406 29.8827 103.246 29.866 103.073 29.866C102.666 29.866 102.356 29.9907 102.143 30.2399C101.931 30.4836 101.825 30.8297 101.825 31.2783C101.825 31.7103 101.925 32.0537 102.126 32.3084C102.327 32.5576 102.666 32.6822 103.142 32.6822C103.32 32.6822 103.495 32.6656 103.668 32.6324C103.84 32.5992 103.989 32.5576 104.115 32.5078L104.262 33.3385C104.147 33.3939 103.972 33.4438 103.736 33.4881C103.507 33.5324 103.269 33.5545 103.022 33.5545C102.637 33.5545 102.301 33.4991 102.014 33.3884C101.733 33.2721 101.498 33.1142 101.308 32.9148C101.124 32.7099 100.987 32.469 100.895 32.1921C100.803 31.9097 100.757 31.6051 100.757 31.2783ZM104.819 31.2949C104.819 30.9128 104.876 30.5777 104.991 30.2897C105.111 30.0017 105.269 29.7636 105.464 29.5753C105.66 29.3814 105.884 29.2375 106.136 29.1433C106.389 29.0436 106.647 28.9938 106.911 28.9938C107.531 28.9938 108.013 29.1793 108.358 29.5504C108.708 29.9214 108.883 30.4753 108.883 31.2118C108.883 31.2672 108.88 31.3309 108.875 31.4029C108.875 31.4694 108.872 31.5303 108.866 31.5857H105.895C105.924 31.9346 106.05 32.206 106.274 32.3998C106.504 32.5881 106.834 32.6822 107.264 32.6822C107.517 32.6822 107.746 32.6601 107.953 32.6158C108.166 32.5715 108.332 32.5244 108.453 32.4746L108.59 33.297C108.533 33.3247 108.453 33.3551 108.349 33.3884C108.252 33.4161 108.137 33.441 108.005 33.4631C107.879 33.4908 107.741 33.513 107.591 33.5296C107.442 33.5462 107.29 33.5545 107.135 33.5545C106.739 33.5545 106.394 33.4991 106.102 33.3884C105.809 33.2721 105.568 33.1142 105.378 32.9148C105.189 32.7099 105.048 32.4718 104.956 32.2004C104.865 31.9235 104.819 31.6217 104.819 31.2949ZM107.841 30.8463C107.841 30.7079 107.821 30.5777 107.781 30.4559C107.741 30.3285 107.68 30.2205 107.6 30.1319C107.525 30.0377 107.431 29.9657 107.316 29.9159C107.207 29.8605 107.075 29.8328 106.92 29.8328C106.759 29.8328 106.618 29.8633 106.498 29.9242C106.377 29.9796 106.274 30.0543 106.188 30.1485C106.107 30.2426 106.044 30.3506 105.998 30.4725C105.952 30.5943 105.921 30.7189 105.904 30.8463H107.841ZM113.855 27.8806C113.797 27.8917 113.734 27.9027 113.665 27.9138C113.602 27.9249 113.525 27.936 113.433 27.947C113.341 27.9581 113.232 27.972 113.106 27.9886C112.985 27.9997 112.844 28.0135 112.684 28.0301C112.437 28.0578 112.216 28.1049 112.021 28.1713C111.825 28.2323 111.656 28.3236 111.512 28.4455C111.369 28.5618 111.251 28.7113 111.159 28.8941C111.068 29.0768 111.002 29.2984 110.961 29.5587C111.139 29.4479 111.332 29.3621 111.538 29.3011C111.751 29.2402 111.957 29.2098 112.158 29.2098C112.755 29.2098 113.229 29.3925 113.579 29.758C113.929 30.1236 114.104 30.6525 114.104 31.3448C114.104 31.6771 114.056 31.9789 113.958 32.2503C113.86 32.5216 113.72 32.7542 113.536 32.9481C113.352 33.1419 113.131 33.2942 112.873 33.405C112.615 33.5102 112.322 33.5628 111.995 33.5628C111.587 33.5628 111.246 33.4991 110.97 33.3718C110.694 33.2388 110.473 33.0533 110.307 32.8152C110.14 32.5715 110.02 32.2807 109.945 31.9429C109.871 31.6051 109.833 31.2285 109.833 30.8131C109.833 30.2703 109.879 29.7913 109.971 29.3759C110.069 28.955 110.224 28.595 110.436 28.296C110.654 27.9969 110.936 27.756 111.28 27.5732C111.63 27.3849 112.055 27.2548 112.554 27.1828C112.813 27.144 113.028 27.1135 113.2 27.0914C113.378 27.0692 113.556 27.0388 113.734 27L113.855 27.8806ZM110.927 30.4393C110.915 30.5112 110.91 30.5999 110.91 30.7051C110.91 30.8048 110.91 30.8989 110.91 30.9875C110.91 31.2368 110.927 31.4666 110.961 31.6771C110.996 31.8875 111.056 32.0675 111.142 32.217C111.228 32.3666 111.34 32.4829 111.478 32.5659C111.616 32.649 111.788 32.6906 111.995 32.6906C112.173 32.6906 112.328 32.6573 112.46 32.5909C112.592 32.5244 112.701 32.4303 112.787 32.3084C112.873 32.1866 112.936 32.0453 112.976 31.8847C113.022 31.7186 113.045 31.5386 113.045 31.3448C113.045 31.1786 113.025 31.0208 112.985 30.8712C112.951 30.7162 112.89 30.5805 112.804 30.4642C112.724 30.3423 112.615 30.2454 112.477 30.1734C112.339 30.1014 112.17 30.0654 111.969 30.0654C111.774 30.0654 111.578 30.0986 111.383 30.1651C111.194 30.2316 111.042 30.3229 110.927 30.4393ZM114.935 31.2949C114.935 30.9128 114.993 30.5777 115.108 30.2897C115.228 30.0017 115.386 29.7636 115.581 29.5753C115.776 29.3814 116 29.2375 116.253 29.1433C116.506 29.0436 116.764 28.9938 117.028 28.9938C117.648 28.9938 118.13 29.1793 118.475 29.5504C118.825 29.9214 119 30.4753 119 31.2118C119 31.2672 118.997 31.3309 118.991 31.4029C118.991 31.4694 118.989 31.5303 118.983 31.5857H116.012C116.041 31.9346 116.167 32.206 116.391 32.3998C116.62 32.5881 116.951 32.6822 117.381 32.6822C117.634 32.6822 117.863 32.6601 118.07 32.6158C118.282 32.5715 118.449 32.5244 118.569 32.4746L118.707 33.297C118.65 33.3247 118.569 33.3551 118.466 33.3884C118.368 33.4161 118.254 33.441 118.122 33.4631C117.995 33.4908 117.858 33.513 117.708 33.5296C117.559 33.5462 117.407 33.5545 117.252 33.5545C116.856 33.5545 116.511 33.4991 116.219 33.3884C115.926 33.2721 115.685 33.1142 115.495 32.9148C115.306 32.7099 115.165 32.4718 115.073 32.2004C114.981 31.9235 114.935 31.6217 114.935 31.2949ZM117.958 30.8463C117.958 30.7079 117.938 30.5777 117.898 30.4559C117.858 30.3285 117.797 30.2205 117.717 30.1319C117.642 30.0377 117.548 29.9657 117.433 29.9159C117.324 29.8605 117.192 29.8328 117.037 29.8328C116.876 29.8328 116.735 29.8633 116.615 29.9242C116.494 29.9796 116.391 30.0543 116.305 30.1485C116.224 30.2426 116.161 30.3506 116.115 30.4725C116.069 30.5943 116.038 30.7189 116.02 30.8463H117.958Z" fill="black"/>
<path d="M26.2895 32H0.710526C0.318113 32 0 32.2239 0 32.5C0 32.7761 0.318113 33 0.710526 33H26.2895C26.6819 33 27 32.7761 27 32.5C27 32.2239 26.6819 32 26.2895 32Z" fill="#4971FF"/>
<path d="M26.2895 30H0.710526C0.318113 30 0 30.2239 0 30.5C0 30.7761 0.318113 31 0.710526 31H26.2895C26.6819 31 27 30.7761 27 30.5C27 30.2239 26.6819 30 26.2895 30Z" fill="#228E67"/>
<path d="M26.2895 28H0.710526C0.318113 28 0 28.2239 0 28.5C0 28.7761 0.318113 29 0.710526 29H26.2895C26.6819 29 27 28.7761 27 28.5C27 28.2239 26.6819 28 26.2895 28Z" fill="#FFB545"/>
</svg>
