<svg width="210" height="63" viewBox="0 0 210 63" fill="none" xmlns="http://www.w3.org/2000/svg">
<path d="M11.4325 35.04C12.3675 35.04 13.1325 34.9689 13.7275 34.8269C14.3509 34.6564 14.8466 34.4433 15.215 34.1876C15.5834 33.9034 15.8384 33.5768 15.98 33.2074C16.1216 32.838 16.1925 32.4261 16.1925 31.9714C16.1925 31.0054 15.7391 30.2099 14.8325 29.5848C13.9259 28.9313 12.3675 28.2352 10.1575 27.4965C9.19417 27.1555 8.23085 26.772 7.26751 26.3458C6.30417 25.8911 5.44001 25.3371 4.67501 24.6837C3.91001 24.0018 3.28667 23.192 2.80501 22.2544C2.32335 21.2883 2.08251 20.1235 2.08251 18.7597C2.08251 17.3959 2.33751 16.1741 2.84751 15.0945C3.35751 13.9864 4.08001 13.0488 5.01501 12.2816C5.95001 11.5145 7.08335 10.932 8.41501 10.5343C9.74667 10.1081 11.2483 9.895 12.92 9.895C14.9034 9.895 16.6175 10.1081 18.0625 10.5343C19.5075 10.9605 20.6975 11.4293 21.6325 11.9407L19.72 17.1828C18.8984 16.7566 17.9775 16.3872 16.9575 16.0747C15.9659 15.7337 14.7616 15.5633 13.345 15.5633C11.7583 15.5633 10.6108 15.7905 9.90251 16.2452C9.22251 16.6714 8.88251 17.3391 8.88251 18.2482C8.88251 18.7881 9.01001 19.2426 9.26501 19.612C9.52001 19.9814 9.87417 20.3224 10.3275 20.6349C10.8092 20.9191 11.3475 21.1889 11.9425 21.4446C12.5659 21.6719 13.2459 21.9134 13.9825 22.1692C15.5125 22.7374 16.8441 23.3057 17.9775 23.8739C19.1109 24.4138 20.0459 25.0531 20.7825 25.7917C21.5475 26.5304 22.1141 27.3971 22.4825 28.3915C22.8509 29.3859 23.035 30.5935 23.035 32.0141C23.035 34.7701 22.0716 36.9152 20.145 38.4495C18.2184 39.9553 15.3141 40.7082 11.4325 40.7082C10.1292 40.7082 8.95335 40.623 7.90501 40.4525C6.85667 40.3105 5.92167 40.1258 5.10001 39.8985C4.30667 39.6712 3.61251 39.4297 3.01751 39.174C2.45085 38.9183 1.96917 38.6767 1.57251 38.4495L3.44251 33.1648C4.32085 33.6477 5.39751 34.0882 6.67251 34.4859C7.97585 34.8553 9.56251 35.04 11.4325 35.04ZM27.4989 12.1112L33.8314 11.0883V17.6942H41.4389V22.9789H33.8314V30.8634C33.8314 32.1987 34.058 33.2642 34.5114 34.0597C34.993 34.8553 35.9421 35.2531 37.3589 35.2531C38.0389 35.2531 38.733 35.1963 39.4414 35.0826C40.178 34.9406 40.8439 34.7558 41.4389 34.5285L42.3314 39.4723C41.5664 39.7848 40.7164 40.0548 39.7814 40.2821C38.8464 40.5093 37.6989 40.623 36.3389 40.623C34.6105 40.623 33.1796 40.3958 32.0464 39.9411C30.913 39.4581 30.0064 38.8046 29.3264 37.9807C28.6464 37.1283 28.1646 36.1054 27.8814 34.9121C27.6264 33.7188 27.4989 32.3976 27.4989 30.9486V12.1112ZM65.6781 39.3445C64.6015 39.6569 63.2131 39.9411 61.5131 40.1968C59.8131 40.481 58.0281 40.623 56.1581 40.623C54.2598 40.623 52.6731 40.3673 51.3981 39.8559C50.1515 39.3445 49.1598 38.6341 48.4231 37.7249C47.6865 36.7873 47.1623 35.6793 46.8506 34.4007C46.539 33.1221 46.3831 31.7157 46.3831 30.1814V17.6942H52.7156V29.4143C52.7156 31.46 52.9848 32.9375 53.5231 33.8467C54.0615 34.7558 55.0673 35.2104 56.5406 35.2104C56.994 35.2104 57.4756 35.1963 57.9856 35.1678C58.4956 35.111 58.949 35.0541 59.3456 34.9974V17.6942H65.6781V39.3445ZM77.02 28.7324C77.02 30.6929 77.4591 32.2698 78.3375 33.4631C79.2158 34.6564 80.5191 35.2531 82.2475 35.2531C82.8141 35.2531 83.3383 35.2389 83.82 35.2104C84.3016 35.1537 84.6983 35.0968 85.01 35.04V23.4903C84.6133 23.2346 84.0891 23.0215 83.4375 22.8511C82.8141 22.6806 82.1766 22.5953 81.525 22.5953C78.5216 22.5953 77.02 24.641 77.02 28.7324ZM91.3425 39.3871C90.7758 39.5575 90.1241 39.728 89.3875 39.8985C88.6508 40.0405 87.8716 40.1684 87.05 40.2821C86.2566 40.3958 85.435 40.481 84.585 40.5378C83.7633 40.623 82.97 40.6656 82.205 40.6656C80.3633 40.6656 78.72 40.3958 77.275 39.8559C75.83 39.316 74.6116 38.5489 73.62 37.5545C72.6283 36.5316 71.8633 35.3098 71.325 33.8893C70.815 32.4402 70.56 30.8207 70.56 29.0307C70.56 27.2123 70.7866 25.5786 71.24 24.1296C71.6933 22.6521 72.345 21.402 73.195 20.3792C74.045 19.3563 75.0791 18.575 76.2975 18.0351C77.5441 17.4953 78.9608 17.2254 80.5475 17.2254C81.4258 17.2254 82.205 17.3106 82.885 17.4811C83.5933 17.6516 84.3016 17.8931 85.01 18.2056V8.0624L91.3425 7.03955V39.3871ZM116.455 17.6942C115.18 22.0128 113.849 26.0616 112.46 29.8405C111.072 33.6194 109.556 37.2846 107.913 40.8361C107.318 42.1147 106.723 43.1943 106.128 44.0751C105.533 44.9843 104.881 45.7231 104.173 46.2913C103.465 46.8879 102.657 47.3141 101.75 47.5698C100.872 47.854 99.8379 47.996 98.6479 47.996C97.6561 47.996 96.7354 47.8966 95.8854 47.6977C95.0636 47.5272 94.3836 47.3283 93.8454 47.101L94.9504 42.0294C95.602 42.2567 96.1829 42.413 96.6929 42.4982C97.2029 42.5835 97.7411 42.6261 98.3079 42.6261C99.4411 42.6261 100.305 42.3136 100.9 41.6885C101.524 41.0918 102.048 40.2536 102.473 39.174C101.028 36.3327 99.5829 33.1506 98.1379 29.6274C96.6929 26.0759 95.3329 22.0981 94.0579 17.6942H100.773C101.056 18.8023 101.382 20.0098 101.75 21.3168C102.147 22.5953 102.558 23.9024 102.983 25.2377C103.408 26.5447 103.833 27.8233 104.258 29.0734C104.711 30.3235 105.136 31.46 105.533 32.4829C105.901 31.46 106.284 30.3235 106.68 29.0734C107.077 27.8233 107.46 26.5447 107.828 25.2377C108.225 23.9024 108.593 22.5953 108.933 21.3168C109.301 20.0098 109.627 18.8023 109.91 17.6942H116.455ZM133.323 23.3199C132.756 23.1778 132.09 23.0357 131.325 22.8937C130.56 22.7232 129.739 22.638 128.86 22.638C128.464 22.638 127.981 22.6806 127.415 22.7658C126.876 22.8226 126.466 22.8937 126.183 22.9789V40.1116H119.85V18.8875C120.983 18.4898 122.315 18.1204 123.845 17.7794C125.404 17.41 127.131 17.2254 129.03 17.2254C129.37 17.2254 129.781 17.2539 130.263 17.3106C130.744 17.3391 131.226 17.3959 131.708 17.4811C132.189 17.5379 132.671 17.6231 133.153 17.7368C133.634 17.8221 134.045 17.9357 134.385 18.0778L133.323 23.3199ZM144.113 40.1116H137.78V17.6942H144.113V40.1116ZM144.708 11.2162C144.708 12.3811 144.325 13.3045 143.56 13.9864C142.823 14.6398 141.945 14.9666 140.925 14.9666C139.905 14.9666 139.013 14.6398 138.248 13.9864C137.51 13.3045 137.143 12.3811 137.143 11.2162C137.143 10.0513 137.51 9.14206 138.248 8.48858C139.013 7.80669 139.905 7.46574 140.925 7.46574C141.945 7.46574 142.823 7.80669 143.56 8.48858C144.325 9.14206 144.708 10.0513 144.708 11.2162ZM169.148 39.3445C168.071 39.6569 166.683 39.9411 164.983 40.1968C163.283 40.481 161.498 40.623 159.628 40.623C157.729 40.623 156.143 40.3673 154.868 39.8559C153.621 39.3445 152.629 38.6341 151.893 37.7249C151.156 36.7873 150.631 35.6793 150.32 34.4007C150.009 33.1221 149.853 31.7157 149.853 30.1814V17.6942H156.185V29.4143C156.185 31.46 156.454 32.9375 156.993 33.8467C157.531 34.7558 158.536 35.2104 160.01 35.2104C160.464 35.2104 160.945 35.1963 161.455 35.1678C161.965 35.111 162.419 35.0541 162.815 34.9974V17.6942H169.148V39.3445ZM187.374 28.221C187.374 26.1753 187.105 24.7263 186.566 23.8739C186.056 23.0215 185.164 22.5953 183.889 22.5953C183.493 22.5953 183.081 22.6238 182.656 22.6806C182.231 22.709 181.821 22.7516 181.424 22.8084V40.1116H175.091V18.4613C175.63 18.3193 176.254 18.1772 176.961 18.0351C177.699 17.8647 178.464 17.7227 179.256 17.609C180.079 17.4669 180.914 17.3674 181.764 17.3106C182.614 17.2254 183.45 17.1828 184.271 17.1828C185.886 17.1828 187.19 17.3959 188.181 17.8221C189.201 18.2198 190.038 18.7029 190.689 19.2711C191.596 18.6176 192.63 18.1062 193.791 17.7368C194.981 17.3674 196.073 17.1828 197.064 17.1828C198.849 17.1828 200.309 17.4385 201.441 17.9499C202.604 18.4329 203.524 19.1291 204.204 20.0382C204.884 20.9474 205.351 22.0271 205.606 23.2772C205.861 24.5273 205.989 25.9196 205.989 27.4539V40.1116H199.656V28.221C199.656 26.1753 199.388 24.7263 198.849 23.8739C198.339 23.0215 197.446 22.5953 196.171 22.5953C195.831 22.5953 195.35 22.6806 194.726 22.8511C194.131 23.0215 193.636 23.2346 193.239 23.4903C193.438 24.1438 193.565 24.84 193.621 25.5786C193.679 26.289 193.706 27.0561 193.706 27.88V40.1116H187.374V28.221Z" fill="#3A62C8"/>
<path d="M65.18 51.047V58.9139H63.365V52.5663H60.47V58.9139H58.655V51.047H65.18ZM73.893 51.047C73.083 54.0354 72.143 56.7429 71.073 59.1696C70.873 59.6209 70.668 60.007 70.458 60.3279C70.248 60.6488 70.013 60.9145 69.753 61.1251C69.493 61.3357 69.203 61.4861 68.883 61.5763C68.563 61.6766 68.193 61.7268 67.773 61.7268C67.493 61.7268 67.213 61.6967 66.933 61.6365C66.663 61.5764 66.458 61.5112 66.318 61.441L66.648 59.9819C67.008 60.1223 67.363 60.1925 67.713 60.1925C68.183 60.1925 68.548 60.0772 68.808 59.8465C69.078 59.6259 69.313 59.28 69.513 58.8086C68.943 57.7056 68.393 56.5022 67.863 55.1986C67.343 53.895 66.878 52.5111 66.468 51.047H68.403C68.503 51.4682 68.623 51.9245 68.763 52.4159C68.913 52.9072 69.073 53.4086 69.243 53.92C69.413 54.4214 69.593 54.9228 69.783 55.4242C69.973 55.9256 70.163 56.3919 70.353 56.8231C70.673 55.9306 70.973 54.983 71.253 53.9802C71.533 52.9674 71.788 51.9897 72.018 51.047H73.893ZM81.44 52.5663H78.905V58.9139H77.09V52.5663H74.57V51.047H81.44V52.5663ZM84.6107 53.9501C84.7607 53.91 84.9807 53.8749 85.2707 53.8448C85.5607 53.8148 85.8507 53.7997 86.1407 53.7997C86.5907 53.7997 87.0107 53.8498 87.4007 53.9501C87.8007 54.0504 88.1457 54.2109 88.4357 54.4315C88.7257 54.6421 88.9557 54.9178 89.1257 55.2588C89.2957 55.5897 89.3807 55.9858 89.3807 56.4471C89.3807 56.9184 89.3007 57.3195 89.1407 57.6504C88.9807 57.9813 88.7507 58.2521 88.4507 58.4627C88.1507 58.6733 87.7907 58.8287 87.3707 58.929C86.9607 59.0293 86.5007 59.0794 85.9907 59.0794C85.4007 59.0794 84.8507 59.0493 84.3407 58.9892C83.8307 58.929 83.3157 58.8387 82.7957 58.7184V51.047H84.6107V53.9501ZM85.9457 57.6504C86.4557 57.6504 86.8507 57.5552 87.1307 57.3646C87.4207 57.1641 87.5657 56.8482 87.5657 56.417C87.5657 56.1964 87.5157 56.0109 87.4157 55.8604C87.3257 55.71 87.2007 55.5897 87.0407 55.4994C86.8907 55.3992 86.7107 55.329 86.5007 55.2889C86.2907 55.2487 86.0707 55.2287 85.8407 55.2287C85.6307 55.2287 85.4107 55.2387 85.1807 55.2588C84.9507 55.2688 84.7607 55.2939 84.6107 55.334V57.5752C84.7407 57.5953 84.9307 57.6153 85.1807 57.6354C85.4407 57.6454 85.6957 57.6504 85.9457 57.6504ZM96.344 54.2058C96.574 53.9752 96.824 53.7195 97.094 53.4387C97.364 53.1479 97.629 52.8571 97.889 52.5663C98.159 52.2755 98.414 51.9997 98.654 51.739C98.894 51.4682 99.094 51.2376 99.254 51.047H101.384C101.164 51.3078 100.909 51.5936 100.619 51.9044C100.339 52.2153 100.044 52.5362 99.734 52.8671C99.434 53.188 99.134 53.5039 98.834 53.8147C98.544 54.1156 98.279 54.3863 98.039 54.627C98.349 54.8877 98.669 55.1936 98.999 55.5446C99.339 55.8855 99.669 56.2515 99.989 56.6426C100.319 57.0237 100.624 57.4148 100.904 57.8159C101.184 58.207 101.419 58.573 101.609 58.9139H99.509C99.319 58.6131 99.094 58.2972 98.834 57.9663C98.584 57.6354 98.319 57.3145 98.039 57.0036C97.759 56.6827 97.474 56.3819 97.184 56.1011C96.894 55.8203 96.614 55.5797 96.344 55.3791V58.9139H94.529V51.047H96.344V54.2058ZM109.499 52.5512C109.489 52.9925 109.474 53.4537 109.454 53.9351C109.434 54.4064 109.384 54.8727 109.304 55.334C109.234 55.7953 109.119 56.2365 108.959 56.6577C108.799 57.0788 108.574 57.4599 108.284 57.8008C108.004 58.1318 107.649 58.4125 107.219 58.6432C106.799 58.8638 106.284 59.0042 105.674 59.0644L105.419 57.5451C105.929 57.4449 106.324 57.2844 106.604 57.0638C106.884 56.8331 107.099 56.5423 107.249 56.1914C107.369 55.9306 107.459 55.6348 107.519 55.3039C107.589 54.973 107.639 54.627 107.669 54.266C107.709 53.895 107.734 53.5189 107.744 53.1379C107.754 52.7568 107.759 52.3858 107.759 52.0248V51.047H113.309V58.9139H111.494V52.5512H109.499ZM122.028 51.047C121.218 54.0354 120.278 56.7429 119.208 59.1696C119.008 59.6209 118.803 60.007 118.593 60.3279C118.383 60.6488 118.148 60.9145 117.888 61.1251C117.628 61.3357 117.338 61.4861 117.018 61.5763C116.698 61.6766 116.328 61.7268 115.908 61.7268C115.628 61.7268 115.348 61.6967 115.068 61.6365C114.798 61.5764 114.593 61.5112 114.453 61.441L114.783 59.9819C115.143 60.1223 115.498 60.1925 115.848 60.1925C116.318 60.1925 116.683 60.0772 116.943 59.8465C117.213 59.6259 117.448 59.28 117.648 58.8086C117.078 57.7056 116.528 56.5022 115.998 55.1986C115.478 53.895 115.013 52.5111 114.603 51.047H116.538C116.638 51.4682 116.758 51.9245 116.898 52.4159C117.048 52.9072 117.208 53.4086 117.378 53.92C117.548 54.4214 117.728 54.9228 117.918 55.4242C118.108 55.9256 118.298 56.3919 118.488 56.8231C118.808 55.9306 119.108 54.983 119.388 53.9802C119.668 52.9674 119.923 51.9897 120.153 51.047H122.028ZM124.706 53.4838C124.706 53.9652 124.841 54.3061 125.111 54.5067C125.391 54.6972 125.771 54.7925 126.251 54.7925C126.481 54.7925 126.706 54.7824 126.926 54.7624C127.156 54.7323 127.356 54.6972 127.526 54.6571V51.047H129.341V58.9139H127.526V56.1011C127.346 56.1312 127.111 56.1713 126.821 56.2214C126.531 56.2616 126.271 56.2816 126.041 56.2816C125.571 56.2816 125.141 56.2365 124.751 56.1462C124.371 56.056 124.041 55.9056 123.761 55.695C123.481 55.4744 123.266 55.1886 123.116 54.8376C122.966 54.4766 122.891 54.0303 122.891 53.4989V51.047H124.706V53.4838ZM131.649 51.047H133.464V57.4248H135.924V51.047H137.739V57.4248H140.199V51.047H142.014V58.9139H131.649V51.047ZM143.884 55.0181C143.884 54.3262 143.984 53.7195 144.184 53.198C144.394 52.6766 144.669 52.2454 145.009 51.9044C145.349 51.5535 145.739 51.2927 146.179 51.1223C146.619 50.9418 147.069 50.8515 147.529 50.8515C148.609 50.8515 149.449 51.1874 150.049 51.8593C150.659 52.5312 150.964 53.534 150.964 54.8677C150.964 54.968 150.959 55.0833 150.949 55.2136C150.949 55.334 150.944 55.4443 150.934 55.5446H145.759C145.809 56.1763 146.029 56.6677 146.419 57.0187C146.819 57.3596 147.394 57.5301 148.144 57.5301C148.584 57.5301 148.984 57.49 149.344 57.4098C149.714 57.3295 150.004 57.2443 150.214 57.154L150.454 58.6432C150.354 58.6933 150.214 58.7485 150.034 58.8086C149.864 58.8588 149.664 58.9039 149.434 58.944C149.214 58.9942 148.974 59.0343 148.714 59.0644C148.454 59.0944 148.189 59.1095 147.919 59.1095C147.229 59.1095 146.629 59.0092 146.119 58.8086C145.609 58.5981 145.189 58.3123 144.859 57.9513C144.529 57.5802 144.284 57.149 144.124 56.6577C143.964 56.1563 143.884 55.6097 143.884 55.0181ZM149.149 54.2058C149.149 53.9551 149.114 53.7195 149.044 53.4989C148.974 53.2682 148.869 53.0727 148.729 52.9122C148.599 52.7418 148.434 52.6114 148.234 52.5212C148.044 52.4209 147.814 52.3707 147.544 52.3707C147.264 52.3707 147.019 52.4259 146.809 52.5362C146.599 52.6365 146.419 52.7718 146.269 52.9423C146.129 53.1128 146.019 53.3083 145.939 53.529C145.859 53.7496 145.804 53.9752 145.774 54.2058H149.149ZM154.719 53.7546C154.689 54.1758 154.659 54.617 154.629 55.0783C154.599 55.5295 154.574 55.9808 154.554 56.432C154.534 56.8833 154.514 57.3195 154.494 57.7407C154.474 58.1618 154.459 58.5529 154.449 58.9139H152.694C152.714 58.3323 152.744 57.7056 152.784 57.0337C152.824 56.3518 152.869 55.6649 152.919 54.973C152.979 54.271 153.039 53.5841 153.099 52.9122C153.159 52.2404 153.224 51.6186 153.294 51.047H154.869C155.249 51.6587 155.634 52.3808 156.024 53.2131C156.414 54.0354 156.849 54.973 157.329 56.0259C157.829 54.9529 158.284 53.9852 158.694 53.1228C159.104 52.2504 159.469 51.5585 159.789 51.047H161.379C161.449 51.6186 161.514 52.2404 161.574 52.9122C161.644 53.5841 161.704 54.271 161.754 54.973C161.804 55.6649 161.849 56.3518 161.889 57.0337C161.929 57.7056 161.959 58.3323 161.979 58.9139H160.179C160.159 58.0917 160.124 57.2443 160.074 56.3719C160.034 55.4894 159.984 54.617 159.924 53.7546C159.774 54.0554 159.609 54.3914 159.429 54.7624C159.259 55.1334 159.089 55.5095 158.919 55.8905C158.749 56.2716 158.584 56.6426 158.424 57.0036C158.264 57.3546 158.124 57.6655 158.004 57.9362H156.654C156.534 57.6655 156.389 57.3496 156.219 56.9886C156.059 56.6276 155.894 56.2565 155.724 55.8755C155.554 55.4944 155.379 55.1234 155.199 54.7624C155.029 54.3914 154.869 54.0554 154.719 53.7546ZM170.5 51.047C169.69 54.0354 168.75 56.7429 167.68 59.1696C167.48 59.6209 167.275 60.007 167.065 60.3279C166.855 60.6488 166.62 60.9145 166.36 61.1251C166.1 61.3357 165.81 61.4861 165.49 61.5763C165.17 61.6766 164.8 61.7268 164.38 61.7268C164.1 61.7268 163.82 61.6967 163.54 61.6365C163.27 61.5764 163.065 61.5112 162.925 61.441L163.255 59.9819C163.615 60.1223 163.97 60.1925 164.32 60.1925C164.79 60.1925 165.155 60.0772 165.415 59.8465C165.685 59.6259 165.92 59.28 166.12 58.8086C165.55 57.7056 165 56.5022 164.47 55.1986C163.95 53.895 163.485 52.5111 163.075 51.047H165.01C165.11 51.4682 165.23 51.9245 165.37 52.4159C165.52 52.9072 165.68 53.4086 165.85 53.92C166.02 54.4214 166.2 54.9228 166.39 55.4242C166.58 55.9256 166.77 56.3919 166.96 56.8231C167.28 55.9306 167.58 54.983 167.86 53.9802C168.14 52.9674 168.395 51.9897 168.625 51.047H170.5ZM174.939 54.988C174.939 54.4064 175.029 53.8649 175.209 53.3635C175.389 52.8521 175.644 52.4108 175.974 52.0398C176.314 51.6688 176.724 51.378 177.204 51.1674C177.684 50.9568 178.224 50.8515 178.824 50.8515C179.564 50.8515 180.264 50.9869 180.924 51.2576L180.534 52.7468C180.324 52.6565 180.084 52.5813 179.814 52.5212C179.554 52.461 179.274 52.4309 178.974 52.4309C178.264 52.4309 177.724 52.6565 177.354 53.1078C176.984 53.549 176.799 54.1758 176.799 54.988C176.799 55.7702 176.974 56.3919 177.324 56.8532C177.674 57.3045 178.264 57.5301 179.094 57.5301C179.404 57.5301 179.709 57.5 180.009 57.4398C180.309 57.3797 180.569 57.3045 180.789 57.2142L181.044 58.7184C180.844 58.8187 180.539 58.9089 180.129 58.9892C179.729 59.0694 179.314 59.1095 178.884 59.1095C178.214 59.1095 177.629 59.0092 177.129 58.8086C176.639 58.5981 176.229 58.3123 175.899 57.9513C175.579 57.5802 175.339 57.144 175.179 56.6426C175.019 56.1312 174.939 55.5797 174.939 54.988ZM182.014 55.0181C182.014 54.3262 182.114 53.7195 182.314 53.198C182.524 52.6766 182.799 52.2454 183.139 51.9044C183.479 51.5535 183.869 51.2927 184.309 51.1223C184.749 50.9418 185.199 50.8515 185.659 50.8515C186.739 50.8515 187.579 51.1874 188.179 51.8593C188.789 52.5312 189.094 53.534 189.094 54.8677C189.094 54.968 189.089 55.0833 189.079 55.2136C189.079 55.334 189.074 55.4443 189.064 55.5446H183.889C183.939 56.1763 184.159 56.6677 184.549 57.0187C184.949 57.3596 185.524 57.5301 186.274 57.5301C186.714 57.5301 187.114 57.49 187.474 57.4098C187.844 57.3295 188.134 57.2443 188.344 57.154L188.584 58.6432C188.484 58.6933 188.344 58.7485 188.164 58.8086C187.994 58.8588 187.794 58.9039 187.564 58.944C187.344 58.9942 187.104 59.0343 186.844 59.0644C186.584 59.0944 186.319 59.1095 186.049 59.1095C185.359 59.1095 184.759 59.0092 184.249 58.8086C183.739 58.5981 183.319 58.3123 182.989 57.9513C182.659 57.5802 182.414 57.149 182.254 56.6577C182.094 56.1563 182.014 55.6097 182.014 55.0181ZM187.279 54.2058C187.279 53.9551 187.244 53.7195 187.174 53.4989C187.104 53.2682 186.999 53.0727 186.859 52.9122C186.729 52.7418 186.564 52.6114 186.364 52.5212C186.174 52.4209 185.944 52.3707 185.674 52.3707C185.394 52.3707 185.149 52.4259 184.939 52.5362C184.729 52.6365 184.549 52.7718 184.399 52.9423C184.259 53.1128 184.149 53.3083 184.069 53.529C183.989 53.7496 183.934 53.9752 183.904 54.2058H187.279ZM197.754 48.8359C197.654 48.8559 197.544 48.876 197.424 48.8961C197.314 48.9161 197.179 48.9362 197.019 48.9562C196.859 48.9763 196.669 49.0014 196.449 49.0314C196.239 49.0515 195.994 49.0766 195.714 49.1066C195.284 49.1568 194.899 49.242 194.559 49.3624C194.219 49.4727 193.924 49.6381 193.674 49.8587C193.424 50.0693 193.219 50.3401 193.059 50.671C192.899 51.0019 192.784 51.403 192.714 51.8743C193.024 51.6738 193.359 51.5184 193.719 51.4081C194.089 51.2977 194.449 51.2426 194.799 51.2426C195.839 51.2426 196.664 51.5735 197.274 52.2354C197.884 52.8972 198.189 53.8549 198.189 55.1083C198.189 55.71 198.104 56.2565 197.934 56.7479C197.764 57.2393 197.519 57.6604 197.199 58.0114C196.879 58.3624 196.494 58.6382 196.044 58.8387C195.594 59.0293 195.084 59.1245 194.514 59.1245C193.804 59.1245 193.209 59.0092 192.729 58.7786C192.249 58.5379 191.864 58.202 191.574 57.7708C191.284 57.3295 191.074 56.8031 190.944 56.1914C190.814 55.5797 190.749 54.8978 190.749 54.1457C190.749 53.1629 190.829 52.2955 190.989 51.5434C191.159 50.7813 191.429 50.1295 191.799 49.588C192.179 49.0465 192.669 48.6103 193.269 48.2793C193.879 47.9384 194.619 47.7027 195.489 47.5724C195.939 47.5022 196.314 47.447 196.614 47.4069C196.924 47.3668 197.234 47.3117 197.544 47.2415L197.754 48.8359ZM192.654 53.4688C192.634 53.5991 192.624 53.7596 192.624 53.9501C192.624 54.1306 192.624 54.3011 192.624 54.4616C192.624 54.9128 192.654 55.329 192.714 55.71C192.774 56.0911 192.879 56.417 193.029 56.6877C193.179 56.9585 193.374 57.1691 193.614 57.3195C193.854 57.4699 194.154 57.5451 194.514 57.5451C194.824 57.5451 195.094 57.485 195.324 57.3646C195.554 57.2443 195.744 57.0738 195.894 56.8532C196.044 56.6326 196.154 56.3769 196.224 56.0861C196.304 55.7852 196.344 55.4593 196.344 55.1083C196.344 54.8075 196.309 54.5217 196.239 54.251C196.179 53.9702 196.074 53.7245 195.924 53.5139C195.784 53.2933 195.594 53.1178 195.354 52.9874C195.114 52.8571 194.819 52.7919 194.469 52.7919C194.129 52.7919 193.789 52.8521 193.449 52.9724C193.119 53.0927 192.854 53.2582 192.654 53.4688ZM199.636 55.0181C199.636 54.3262 199.736 53.7195 199.936 53.198C200.146 52.6766 200.421 52.2454 200.761 51.9044C201.101 51.5535 201.491 51.2927 201.931 51.1223C202.371 50.9418 202.821 50.8515 203.281 50.8515C204.361 50.8515 205.201 51.1874 205.801 51.8593C206.411 52.5312 206.716 53.534 206.716 54.8677C206.716 54.968 206.711 55.0833 206.701 55.2136C206.701 55.334 206.696 55.4443 206.686 55.5446H201.511C201.561 56.1763 201.781 56.6677 202.171 57.0187C202.571 57.3596 203.146 57.5301 203.896 57.5301C204.336 57.5301 204.736 57.49 205.096 57.4098C205.466 57.3295 205.756 57.2443 205.966 57.154L206.206 58.6432C206.106 58.6933 205.966 58.7485 205.786 58.8086C205.616 58.8588 205.416 58.9039 205.186 58.944C204.966 58.9942 204.726 59.0343 204.466 59.0644C204.206 59.0944 203.941 59.1095 203.671 59.1095C202.981 59.1095 202.381 59.0092 201.871 58.8086C201.361 58.5981 200.941 58.3123 200.611 57.9513C200.281 57.5802 200.036 57.149 199.876 56.6577C199.716 56.1563 199.636 55.6097 199.636 55.0181ZM204.901 54.2058C204.901 53.9551 204.866 53.7195 204.796 53.4989C204.726 53.2682 204.621 53.0727 204.481 52.9122C204.351 52.7418 204.186 52.6114 203.986 52.5212C203.796 52.4209 203.566 52.3707 203.296 52.3707C203.016 52.3707 202.771 52.4259 202.561 52.5362C202.351 52.6365 202.171 52.7718 202.021 52.9423C201.881 53.1128 201.771 53.3083 201.691 53.529C201.611 53.7496 201.556 53.9752 201.526 54.2058H204.901Z" fill="black"/>
<path d="M46.25 56.407H1.25C0.559644 56.407 0 56.9682 0 57.6605C0 58.3528 0.559644 58.914 1.25 58.914H46.25C46.9404 58.914 47.5 58.3528 47.5 57.6605C47.5 56.9682 46.9404 56.407 46.25 56.407Z" fill="#4971FF"/>
<path d="M46.25 52.6465H1.25C0.559644 52.6465 0 53.2077 0 53.9C0 54.5923 0.559644 55.1535 1.25 55.1535H46.25C46.9404 55.1535 47.5 54.5923 47.5 53.9C47.5 53.2077 46.9404 52.6465 46.25 52.6465Z" fill="#228E67"/>
<path d="M46.25 48.886H1.25C0.559644 48.886 0 49.4472 0 50.1395C0 50.8318 0.559644 51.393 1.25 51.393H46.25C46.9404 51.393 47.5 50.8318 47.5 50.1395C47.5 49.4472 46.9404 48.886 46.25 48.886Z" fill="#FFB545"/>
</svg>
