<svg width="168" height="41" viewBox="0 0 168 41" fill="none" xmlns="http://www.w3.org/2000/svg">
<path d="M16.2352 18.3121C16.9213 18.3121 17.4827 18.2658 17.9193 18.1733C18.3767 18.0623 18.7405 17.9236 19.0108 17.7571C19.2811 17.5721 19.4683 17.3594 19.5722 17.1189C19.6761 16.8783 19.7281 16.6102 19.7281 16.3141C19.7281 15.6851 19.3954 15.1672 18.7301 14.7602C18.0649 14.3348 16.9213 13.8815 15.2996 13.4005C14.5928 13.1785 13.8859 12.9288 13.179 12.6513C12.4721 12.3553 11.838 11.9945 11.2766 11.5691C10.7153 11.1251 10.2578 10.5979 9.9044 9.9874C9.55096 9.3584 9.37424 8.59996 9.37424 7.71199C9.37424 6.82403 9.56135 6.02854 9.93559 5.32559C10.3098 4.60412 10.84 3.99365 11.5261 3.49417C12.2122 2.99469 13.0438 2.61545 14.021 2.35646C14.9982 2.07897 16.1001 1.94023 17.3268 1.94023C18.7822 1.94023 20.04 2.07897 21.1003 2.35646C22.1606 2.63395 23.0339 2.93919 23.72 3.27217L22.3166 6.68529C21.7137 6.4078 21.0379 6.16728 20.2895 5.96382C19.5618 5.74182 18.6781 5.63083 17.6386 5.63083C16.4743 5.63083 15.6323 5.7788 15.1125 6.07481C14.6135 6.3523 14.3641 6.78706 14.3641 7.37901C14.3641 7.73052 14.4576 8.02645 14.6447 8.26697C14.8319 8.50749 15.0917 8.72948 15.4244 8.93294C15.7778 9.11796 16.1729 9.29368 16.6095 9.46017C17.0669 9.60814 17.5659 9.76541 18.1064 9.9319C19.2291 10.3019 20.2063 10.6719 21.0379 11.0419C21.8696 11.3934 22.5557 11.8096 23.0962 12.2906C23.6576 12.7715 24.0734 13.3358 24.3437 13.9832C24.614 14.6307 24.7491 15.417 24.7491 16.3419C24.7491 18.1363 24.0422 19.533 22.6284 20.532C21.2147 21.5124 19.0836 22.0027 16.2352 22.0027C15.2789 22.0027 14.416 21.9472 13.6468 21.8362C12.8775 21.7437 12.1914 21.6234 11.5885 21.4754C11.0063 21.3275 10.4969 21.1702 10.0603 21.0037C9.64452 20.8372 9.29107 20.6799 9 20.532L10.3722 17.0911C11.0167 17.4056 11.8068 17.6924 12.7424 17.9513C13.6987 18.1918 14.863 18.3121 16.2352 18.3121ZM28.0247 3.38317L32.6715 2.7172V7.01827H38.2538V10.4591H32.6715V15.5927C32.6715 16.4621 32.8378 17.1558 33.1704 17.6738C33.5239 18.1918 34.2203 18.4508 35.2599 18.4508C35.7589 18.4508 36.2683 18.4138 36.7881 18.3398C37.3286 18.2473 37.8172 18.127 38.2538 17.9791L38.9087 21.1979C38.3474 21.4014 37.7237 21.5772 37.0376 21.7252C36.3515 21.8731 35.5094 21.9472 34.5115 21.9472C33.2432 21.9472 32.1932 21.7992 31.3616 21.5032C30.53 21.1887 29.8647 20.7632 29.3657 20.2267C28.8667 19.6718 28.5132 19.0058 28.3054 18.2288C28.1183 17.4518 28.0247 16.5916 28.0247 15.6482V3.38317ZM56.0405 21.1147C55.2505 21.3182 54.2317 21.5032 52.9842 21.6697C51.7368 21.8547 50.427 21.9472 49.0548 21.9472C47.6617 21.9472 46.4975 21.7807 45.5619 21.4477C44.6471 21.1147 43.9194 20.6522 43.3788 20.0602C42.8383 19.4498 42.4536 18.7283 42.2249 17.8958C41.9963 17.0634 41.8819 16.1476 41.8819 15.1487V7.01827H46.5287V14.6492C46.5287 15.9812 46.7261 16.9431 47.1212 17.5351C47.5163 18.127 48.2543 18.4231 49.3354 18.4231C49.6681 18.4231 50.0215 18.4138 50.3958 18.3953C50.77 18.3583 51.1027 18.3213 51.3937 18.2843V7.01827H56.0405V21.1147ZM64.3631 14.2052C64.3631 15.4817 64.6854 16.5084 65.3299 17.2854C65.9744 18.0623 66.9308 18.4508 68.1991 18.4508C68.6148 18.4508 68.9994 18.4416 69.353 18.4231C69.7064 18.3861 69.9974 18.349 70.2262 18.3121V10.7921C69.935 10.6256 69.5504 10.4869 69.0723 10.3759C68.6148 10.2649 68.1471 10.2094 67.6689 10.2094C65.465 10.2094 64.3631 11.5413 64.3631 14.2052ZM74.8729 21.1424C74.4571 21.2534 73.9789 21.3644 73.4384 21.4754C72.8977 21.5679 72.326 21.6511 71.7231 21.7252C71.1409 21.7992 70.538 21.8547 69.9143 21.8917C69.3113 21.9472 68.7292 21.9749 68.1679 21.9749C66.8164 21.9749 65.6106 21.7992 64.5503 21.4477C63.4899 21.0962 62.5959 20.5967 61.8682 19.9492C61.1405 19.2833 60.5791 18.4878 60.1842 17.5628C59.8099 16.6194 59.6228 15.5649 59.6228 14.3995C59.6228 13.2155 59.7891 12.1518 60.1218 11.2084C60.4544 10.2464 60.9326 9.43242 61.5564 8.76645C62.1801 8.10048 62.9389 7.59178 63.833 7.24026C64.7477 6.88875 65.7873 6.71303 66.9516 6.71303C67.5961 6.71303 68.1679 6.76853 68.6669 6.87953C69.1866 6.99052 69.7064 7.14779 70.2262 7.35126V0.747028L74.8729 0.0810547V21.1424ZM93.3007 7.01827C92.3651 9.83013 91.3879 12.4663 90.3692 14.9267C89.3504 17.3871 88.238 19.7735 87.0322 22.0859C86.5956 22.9184 86.159 23.6213 85.7223 24.1948C85.2858 24.7868 84.8075 25.2678 84.2878 25.6378C83.768 26.0262 83.1755 26.3037 82.5102 26.4702C81.8657 26.6553 81.1068 26.7477 80.2336 26.7477C79.5059 26.7477 78.8302 26.683 78.2065 26.5535C77.6035 26.4425 77.1045 26.313 76.7095 26.165L77.5204 22.8629C77.9985 23.0108 78.4248 23.1126 78.799 23.1681C79.1733 23.2236 79.5682 23.2514 79.9841 23.2514C80.8157 23.2514 81.4499 23.0479 81.8865 22.6409C82.3438 22.2524 82.7285 21.7066 83.0404 21.0037C81.98 19.1538 80.9197 17.0819 79.8594 14.788C78.799 12.4756 77.8011 9.88563 76.8655 7.01827H81.7929C82.0008 7.73974 82.2399 8.52593 82.5102 9.37693C82.8012 10.2094 83.1027 11.0604 83.4146 11.9298C83.7265 12.7808 84.0383 13.6133 84.3501 14.4272C84.6828 15.2412 84.9947 15.9812 85.2858 16.6471C85.556 15.9812 85.8367 15.2412 86.1278 14.4272C86.4189 13.6133 86.6995 12.7808 86.9699 11.9298C87.2609 11.0604 87.5312 10.2094 87.7807 9.37693C88.0509 8.52593 88.29 7.73974 88.498 7.01827H93.3007ZM105.678 10.6811C105.262 10.5887 104.773 10.4961 104.212 10.4036C103.651 10.2926 103.048 10.2371 102.403 10.2371C102.112 10.2371 101.758 10.2649 101.343 10.3204C100.947 10.3574 100.647 10.4036 100.438 10.4591V21.6142H95.7916V7.79524C96.6233 7.53628 97.6005 7.29576 98.7232 7.07377C99.867 6.83325 101.135 6.71303 102.528 6.71303C102.777 6.71303 103.079 6.73156 103.432 6.76853C103.785 6.78706 104.14 6.82403 104.493 6.87953C104.846 6.9165 105.2 6.972 105.553 7.04602C105.906 7.10152 106.208 7.17554 106.457 7.26801L105.678 10.6811ZM113.595 21.6142H108.949V7.01827H113.595V21.6142ZM114.032 2.80044C114.032 3.55891 113.751 4.16014 113.19 4.60412C112.649 5.02958 112.005 5.24234 111.256 5.24234C110.508 5.24234 109.853 5.02958 109.292 4.60412C108.751 4.16014 108.481 3.55891 108.481 2.80044C108.481 2.04198 108.751 1.45 109.292 1.02452C109.853 0.580534 110.508 0.358543 111.256 0.358543C112.005 0.358543 112.649 0.580534 113.19 1.02452C113.751 1.45 114.032 2.04198 114.032 2.80044ZM131.966 21.1147C131.176 21.3182 130.157 21.5032 128.91 21.6697C127.662 21.8547 126.352 21.9472 124.98 21.9472C123.587 21.9472 122.423 21.7807 121.487 21.4477C120.573 21.1147 119.845 20.6522 119.304 20.0602C118.764 19.4498 118.379 18.7283 118.15 17.8958C117.922 17.0634 117.807 16.1476 117.807 15.1487V7.01827H122.454V14.6492C122.454 15.9812 122.651 16.9431 123.047 17.5351C123.442 18.127 124.179 18.4231 125.261 18.4231C125.594 18.4231 125.947 18.4138 126.321 18.3953C126.696 18.3583 127.028 18.3213 127.319 18.2843V7.01827H131.966V21.1147ZM145.34 13.8722C145.34 12.5403 145.143 11.5968 144.748 11.0419C144.374 10.4869 143.719 10.2094 142.783 10.2094C142.492 10.2094 142.191 10.2279 141.879 10.2649C141.567 10.2834 141.266 10.3112 140.974 10.3481V21.6142H136.328V7.51775C136.723 7.42528 137.181 7.33273 137.7 7.24026C138.241 7.12927 138.802 7.0368 139.384 6.96277C139.987 6.87031 140.6 6.8055 141.224 6.76853C141.848 6.71304 142.461 6.68529 143.064 6.68529C144.249 6.68529 145.206 6.82403 145.933 7.10152C146.681 7.36048 147.295 7.67502 147.773 8.04498C148.439 7.61952 149.197 7.28654 150.05 7.04602C150.923 6.8055 151.723 6.68529 152.451 6.68529C153.761 6.68529 154.832 6.85178 155.663 7.18477C156.516 7.49923 157.191 7.95251 157.69 8.54446C158.189 9.13641 158.532 9.83943 158.719 10.6534C158.906 11.4673 159 12.3738 159 13.3728V21.6142H154.353V13.8722C154.353 12.5403 154.156 11.5968 153.761 11.0419C153.386 10.4869 152.732 10.2094 151.796 10.2094C151.546 10.2094 151.193 10.2649 150.736 10.3759C150.299 10.4869 149.936 10.6256 149.644 10.7921C149.79 11.2176 149.883 11.6709 149.925 12.1518C149.967 12.6143 149.987 13.1138 149.987 13.6503V21.6142H145.34V13.8722Z" fill="white"/>
<path d="M4.568 37.8676C3.832 37.8676 3.22 37.7316 2.732 37.4596C2.252 37.1876 1.888 36.8076 1.64 36.3196C1.392 35.8316 1.256 35.2636 1.232 34.6156C1.224 34.2876 1.22 33.9356 1.22 33.5596C1.22 33.1836 1.224 32.8236 1.232 32.4796C1.256 31.8316 1.392 31.2636 1.64 30.7756C1.888 30.2876 2.252 29.9076 2.732 29.6356C3.22 29.3636 3.832 29.2276 4.568 29.2276C5.12 29.2276 5.604 29.3036 6.02 29.4556C6.436 29.6076 6.78 29.8116 7.052 30.0676C7.332 30.3236 7.544 30.6116 7.688 30.9316C7.832 31.2436 7.912 31.5676 7.928 31.9036C7.936 31.9756 7.912 32.0356 7.856 32.0836C7.808 32.1316 7.748 32.1556 7.676 32.1556H7.016C6.944 32.1556 6.88 32.1356 6.824 32.0956C6.776 32.0556 6.74 31.9836 6.716 31.8796C6.58 31.2556 6.324 30.8276 5.948 30.5956C5.58 30.3636 5.116 30.2476 4.556 30.2476C3.916 30.2476 3.408 30.4316 3.032 30.7996C2.656 31.1596 2.452 31.7396 2.42 32.5396C2.396 33.1956 2.396 33.8676 2.42 34.5556C2.452 35.3556 2.656 35.9396 3.032 36.3076C3.408 36.6676 3.916 36.8476 4.556 36.8476C5.116 36.8476 5.58 36.7316 5.948 36.4996C6.324 36.2676 6.58 35.8396 6.716 35.2156C6.74 35.1116 6.776 35.0396 6.824 34.9996C6.88 34.9596 6.944 34.9396 7.016 34.9396H7.676C7.748 34.9396 7.808 34.9636 7.856 35.0116C7.912 35.0596 7.936 35.1196 7.928 35.1916C7.912 35.5276 7.832 35.8556 7.688 36.1756C7.544 36.4876 7.332 36.7716 7.052 37.0276C6.78 37.2836 6.436 37.4876 6.02 37.6396C5.604 37.7916 5.12 37.8676 4.568 37.8676ZM9.02019 39.0676C8.94019 39.0676 8.87219 39.0396 8.81619 38.9836C8.76819 38.9356 8.74419 38.8716 8.74419 38.7916V37.0636C8.74419 36.9836 8.76819 36.9196 8.81619 36.8716C8.87219 36.8156 8.94019 36.7876 9.02019 36.7876H9.08019C9.29619 36.7796 9.48019 36.6596 9.63219 36.4276C9.78419 36.1876 9.90019 35.8156 9.98019 35.3116C10.0602 34.7996 10.1002 34.1356 10.1002 33.3196V31.7836C10.1002 31.7036 10.1242 31.6396 10.1722 31.5916C10.2282 31.5356 10.2962 31.5076 10.3762 31.5076H14.2042C14.2842 31.5076 14.3482 31.5356 14.3962 31.5916C14.4522 31.6396 14.4802 31.7036 14.4802 31.7836V36.7636H15.0442C15.1322 36.7636 15.2002 36.7916 15.2482 36.8476C15.2962 36.8956 15.3202 36.9596 15.3202 37.0396V38.7916C15.3202 38.8716 15.2962 38.9356 15.2482 38.9836C15.2002 39.0396 15.1322 39.0676 15.0442 39.0676H14.4802C14.4002 39.0676 14.3322 39.0396 14.2762 38.9836C14.2282 38.9356 14.2042 38.8716 14.2042 38.7916V37.7476H9.86019V38.7916C9.86019 38.8716 9.83219 38.9356 9.77619 38.9836C9.72819 39.0396 9.66419 39.0676 9.58419 39.0676H9.02019ZM10.5082 36.7876L13.3642 36.7636V32.4676H11.1922V33.4516C11.1922 34.2996 11.1322 34.9956 11.0122 35.5396C10.8922 36.0756 10.7242 36.4916 10.5082 36.7876ZM19.0595 37.8676C18.2355 37.8676 17.5795 37.6156 17.0915 37.1116C16.6035 36.5996 16.3355 35.9036 16.2875 35.0236C16.2795 34.9196 16.2755 34.7876 16.2755 34.6276C16.2755 34.4596 16.2795 34.3236 16.2875 34.2196C16.3195 33.6516 16.4515 33.1556 16.6835 32.7316C16.9155 32.2996 17.2315 31.9676 17.6315 31.7356C18.0395 31.5036 18.5155 31.3876 19.0595 31.3876C19.6675 31.3876 20.1755 31.5156 20.5835 31.7716C20.9995 32.0276 21.3155 32.3916 21.5315 32.8636C21.7475 33.3356 21.8555 33.8876 21.8555 34.5196V34.7236C21.8555 34.8116 21.8275 34.8796 21.7715 34.9276C21.7235 34.9756 21.6595 34.9996 21.5795 34.9996H17.4275C17.4275 35.0076 17.4275 35.0236 17.4275 35.0476C17.4275 35.0716 17.4275 35.0916 17.4275 35.1076C17.4435 35.4356 17.5155 35.7436 17.6435 36.0316C17.7715 36.3116 17.9555 36.5396 18.1955 36.7156C18.4355 36.8916 18.7235 36.9796 19.0595 36.9796C19.3475 36.9796 19.5875 36.9356 19.7795 36.8476C19.9715 36.7596 20.1275 36.6636 20.2475 36.5596C20.3675 36.4476 20.4475 36.3636 20.4875 36.3076C20.5595 36.2036 20.6155 36.1436 20.6555 36.1276C20.6955 36.1036 20.7595 36.0916 20.8475 36.0916H21.4235C21.5035 36.0916 21.5675 36.1156 21.6155 36.1636C21.6715 36.2036 21.6955 36.2636 21.6875 36.3436C21.6795 36.4636 21.6155 36.6116 21.4955 36.7876C21.3755 36.9556 21.2035 37.1236 20.9795 37.2916C20.7555 37.4596 20.4835 37.5996 20.1635 37.7116C19.8435 37.8156 19.4755 37.8676 19.0595 37.8676ZM17.4275 34.1716H20.7155V34.1356C20.7155 33.7756 20.6475 33.4556 20.5115 33.1756C20.3835 32.8956 20.1955 32.6756 19.9475 32.5156C19.6995 32.3476 19.4035 32.2636 19.0595 32.2636C18.7155 32.2636 18.4195 32.3476 18.1715 32.5156C17.9315 32.6756 17.7475 32.8956 17.6195 33.1756C17.4915 33.4556 17.4275 33.7756 17.4275 34.1356V34.1716ZM22.9903 37.7476C22.9103 37.7476 22.8423 37.7196 22.7863 37.6636C22.7303 37.6076 22.7023 37.5396 22.7023 37.4596V37.0156C22.7023 36.8476 22.7863 36.7596 22.9543 36.7516C23.2023 36.7436 23.4103 36.6276 23.5783 36.4036C23.7463 36.1716 23.8743 35.8076 23.9623 35.3116C24.0503 34.8076 24.0943 34.1436 24.0943 33.3196V31.7836C24.0943 31.7036 24.1183 31.6396 24.1663 31.5916C24.2223 31.5356 24.2903 31.5076 24.3703 31.5076H28.1863C28.2663 31.5076 28.3303 31.5356 28.3783 31.5916C28.4343 31.6396 28.4623 31.7036 28.4623 31.7836V37.4716C28.4623 37.5516 28.4343 37.6196 28.3783 37.6756C28.3303 37.7236 28.2663 37.7476 28.1863 37.7476H27.6103C27.5303 37.7476 27.4663 37.7236 27.4183 37.6756C27.3703 37.6196 27.3463 37.5516 27.3463 37.4716V32.4676H25.1863V33.4516C25.1863 34.2196 25.1423 34.8796 25.0543 35.4316C24.9663 35.9756 24.8303 36.4196 24.6463 36.7636C24.4703 37.0996 24.2423 37.3476 23.9623 37.5076C23.6903 37.6676 23.3663 37.7476 22.9903 37.7476ZM31.9913 37.8676C31.5913 37.8676 31.2273 37.7876 30.8993 37.6276C30.5713 37.4676 30.3073 37.2516 30.1073 36.9796C29.9073 36.7076 29.8073 36.3996 29.8073 36.0556C29.8073 35.5036 30.0313 35.0636 30.4793 34.7356C30.9273 34.4076 31.5113 34.1916 32.2313 34.0876L34.0193 33.8356V33.4876C34.0193 33.1036 33.9073 32.8036 33.6833 32.5876C33.4673 32.3716 33.1113 32.2636 32.6153 32.2636C32.2553 32.2636 31.9633 32.3356 31.7393 32.4796C31.5233 32.6236 31.3713 32.8076 31.2833 33.0316C31.2353 33.1516 31.1513 33.2116 31.0313 33.2116H30.4913C30.4033 33.2116 30.3353 33.1876 30.2873 33.1396C30.2473 33.0836 30.2273 33.0196 30.2273 32.9476C30.2273 32.8276 30.2713 32.6796 30.3593 32.5036C30.4553 32.3276 30.5993 32.1556 30.7913 31.9876C30.9833 31.8196 31.2273 31.6796 31.5233 31.5676C31.8273 31.4476 32.1953 31.3876 32.6273 31.3876C33.1073 31.3876 33.5113 31.4516 33.8393 31.5796C34.1673 31.6996 34.4233 31.8636 34.6073 32.0716C34.7993 32.2796 34.9353 32.5156 35.0153 32.7796C35.1033 33.0436 35.1473 33.3116 35.1473 33.5836V37.4716C35.1473 37.5516 35.1193 37.6196 35.0633 37.6756C35.0153 37.7236 34.9513 37.7476 34.8713 37.7476H34.3193C34.2313 37.7476 34.1633 37.7236 34.1153 37.6756C34.0673 37.6196 34.0433 37.5516 34.0433 37.4716V36.9556C33.9393 37.0996 33.7993 37.2436 33.6233 37.3876C33.4473 37.5236 33.2273 37.6396 32.9633 37.7356C32.6993 37.8236 32.3753 37.8676 31.9913 37.8676ZM32.2433 36.9676C32.5713 36.9676 32.8713 36.8996 33.1433 36.7636C33.4153 36.6196 33.6273 36.3996 33.7793 36.1036C33.9393 35.8076 34.0193 35.4356 34.0193 34.9876V34.6516L32.6273 34.8556C32.0593 34.9356 31.6313 35.0716 31.3433 35.2636C31.0553 35.4476 30.9113 35.6836 30.9113 35.9716C30.9113 36.1956 30.9753 36.3836 31.1033 36.5356C31.2393 36.6796 31.4073 36.7876 31.6073 36.8596C31.8153 36.9316 32.0273 36.9676 32.2433 36.9676ZM37.1364 37.7476C37.0644 37.7476 37.0004 37.7236 36.9444 37.6756C36.8964 37.6196 36.8724 37.5596 36.8724 37.4956V31.7836C36.8724 31.7036 36.8964 31.6396 36.9444 31.5916C37.0004 31.5356 37.0684 31.5076 37.1484 31.5076H37.7244C37.8044 31.5076 37.8684 31.5356 37.9164 31.5916C37.9644 31.6396 37.9884 31.7036 37.9884 31.7836V36.8716L37.6764 36.5476L41.3124 31.6876C41.3524 31.6396 41.3964 31.5996 41.4444 31.5676C41.4924 31.5276 41.5524 31.5076 41.6244 31.5076H42.1764C42.2404 31.5076 42.2964 31.5316 42.3444 31.5796C42.4004 31.6276 42.4284 31.6836 42.4284 31.7476V37.4716C42.4284 37.5516 42.4004 37.6196 42.3444 37.6756C42.2964 37.7236 42.2324 37.7476 42.1524 37.7476H41.5884C41.5004 37.7476 41.4324 37.7236 41.3844 37.6756C41.3364 37.6196 41.3124 37.5516 41.3124 37.4716V32.6836L41.6484 32.6716L37.9884 37.5676C37.9564 37.6076 37.9164 37.6476 37.8684 37.6876C37.8204 37.7276 37.7564 37.7476 37.6764 37.7476H37.1364ZM39.6804 30.6796C39.2164 30.6796 38.8524 30.6076 38.5884 30.4636C38.3244 30.3196 38.1404 30.1356 38.0364 29.9116C37.9324 29.6796 37.8804 29.4396 37.8804 29.1916C37.8804 29.1276 37.8964 29.0756 37.9284 29.0356C37.9684 28.9876 38.0284 28.9636 38.1084 28.9636H38.5164C38.5884 28.9636 38.6444 28.9876 38.6844 29.0356C38.7244 29.0756 38.7444 29.1276 38.7444 29.1916C38.7444 29.3756 38.8044 29.5476 38.9244 29.7076C39.0524 29.8596 39.3044 29.9356 39.6804 29.9356C40.0644 29.9356 40.3164 29.8596 40.4364 29.7076C40.5564 29.5476 40.6164 29.3756 40.6164 29.1916C40.6164 29.1276 40.6364 29.0756 40.6764 29.0356C40.7164 28.9876 40.7724 28.9636 40.8444 28.9636H41.2644C41.3364 28.9636 41.3924 28.9876 41.4324 29.0356C41.4724 29.0756 41.4924 29.1276 41.4924 29.1916C41.4924 29.4396 41.4364 29.6796 41.3244 29.9116C41.2204 30.1356 41.0364 30.3196 40.7724 30.4636C40.5084 30.6076 40.1444 30.6796 39.6804 30.6796ZM49.6463 37.8676C49.0783 37.8676 48.5863 37.7596 48.1703 37.5436C47.7623 37.3196 47.4463 37.0036 47.2223 36.5956C46.9983 36.1796 46.8783 35.6836 46.8623 35.1076C46.8543 34.9876 46.8503 34.8276 46.8503 34.6276C46.8503 34.4276 46.8543 34.2676 46.8623 34.1476C46.8783 33.5716 46.9983 33.0796 47.2223 32.6716C47.4463 32.2556 47.7623 31.9396 48.1703 31.7236C48.5863 31.4996 49.0783 31.3876 49.6463 31.3876C50.1103 31.3876 50.5063 31.4516 50.8343 31.5796C51.1703 31.7076 51.4463 31.8716 51.6623 32.0716C51.8783 32.2716 52.0383 32.4876 52.1423 32.7196C52.2543 32.9516 52.3143 33.1716 52.3223 33.3796C52.3303 33.4596 52.3063 33.5236 52.2503 33.5716C52.1943 33.6196 52.1263 33.6436 52.0463 33.6436H51.4703C51.3903 33.6436 51.3303 33.6276 51.2903 33.5956C51.2503 33.5556 51.2103 33.4916 51.1703 33.4036C51.0263 33.0116 50.8303 32.7356 50.5823 32.5756C50.3343 32.4156 50.0263 32.3356 49.6583 32.3356C49.1783 32.3356 48.7863 32.4836 48.4823 32.7796C48.1863 33.0756 48.0263 33.5516 48.0023 34.2076C47.9943 34.4956 47.9943 34.7756 48.0023 35.0476C48.0263 35.7116 48.1863 36.1916 48.4823 36.4876C48.7863 36.7756 49.1783 36.9196 49.6583 36.9196C50.0263 36.9196 50.3343 36.8396 50.5823 36.6796C50.8303 36.5196 51.0263 36.2436 51.1703 35.8516C51.2103 35.7636 51.2503 35.7036 51.2903 35.6716C51.3303 35.6316 51.3903 35.6116 51.4703 35.6116H52.0463C52.1263 35.6116 52.1943 35.6356 52.2503 35.6836C52.3063 35.7316 52.3303 35.7956 52.3223 35.8756C52.3143 36.0436 52.2783 36.2156 52.2143 36.3916C52.1503 36.5676 52.0463 36.7476 51.9023 36.9316C51.7663 37.1076 51.5943 37.2676 51.3863 37.4116C51.1783 37.5476 50.9263 37.6596 50.6303 37.7476C50.3423 37.8276 50.0143 37.8676 49.6463 37.8676ZM56.2314 37.8676C55.4074 37.8676 54.7514 37.6156 54.2634 37.1116C53.7754 36.5996 53.5074 35.9036 53.4594 35.0236C53.4514 34.9196 53.4474 34.7876 53.4474 34.6276C53.4474 34.4596 53.4514 34.3236 53.4594 34.2196C53.4914 33.6516 53.6234 33.1556 53.8554 32.7316C54.0874 32.2996 54.4034 31.9676 54.8034 31.7356C55.2114 31.5036 55.6874 31.3876 56.2314 31.3876C56.8394 31.3876 57.3474 31.5156 57.7554 31.7716C58.1714 32.0276 58.4874 32.3916 58.7034 32.8636C58.9194 33.3356 59.0274 33.8876 59.0274 34.5196V34.7236C59.0274 34.8116 58.9994 34.8796 58.9434 34.9276C58.8954 34.9756 58.8314 34.9996 58.7514 34.9996H54.5994C54.5994 35.0076 54.5994 35.0236 54.5994 35.0476C54.5994 35.0716 54.5994 35.0916 54.5994 35.1076C54.6154 35.4356 54.6874 35.7436 54.8154 36.0316C54.9434 36.3116 55.1274 36.5396 55.3674 36.7156C55.6074 36.8916 55.8954 36.9796 56.2314 36.9796C56.5194 36.9796 56.7594 36.9356 56.9514 36.8476C57.1434 36.7596 57.2994 36.6636 57.4194 36.5596C57.5394 36.4476 57.6194 36.3636 57.6594 36.3076C57.7314 36.2036 57.7874 36.1436 57.8274 36.1276C57.8674 36.1036 57.9314 36.0916 58.0194 36.0916H58.5954C58.6754 36.0916 58.7394 36.1156 58.7874 36.1636C58.8434 36.2036 58.8674 36.2636 58.8594 36.3436C58.8514 36.4636 58.7874 36.6116 58.6674 36.7876C58.5474 36.9556 58.3754 37.1236 58.1514 37.2916C57.9274 37.4596 57.6554 37.5996 57.3354 37.7116C57.0154 37.8156 56.6474 37.8676 56.2314 37.8676ZM54.5994 34.1716H57.8874V34.1356C57.8874 33.7756 57.8194 33.4556 57.6834 33.1756C57.5554 32.8956 57.3674 32.6756 57.1194 32.5156C56.8714 32.3476 56.5754 32.2636 56.2314 32.2636C55.8874 32.2636 55.5914 32.3476 55.3434 32.5156C55.1034 32.6756 54.9194 32.8956 54.7914 33.1756C54.6634 33.4556 54.5994 33.7756 54.5994 34.1356V34.1716ZM63.1022 37.8676C62.4862 37.8676 61.9702 37.7516 61.5542 37.5196C61.1462 37.2796 60.8342 36.9436 60.6182 36.5116C60.4102 36.0716 60.2982 35.5636 60.2822 34.9876C60.2742 34.7476 60.2702 34.5076 60.2702 34.2676C60.2702 34.0276 60.2742 33.7876 60.2822 33.5476C60.2822 32.8196 60.3422 32.2156 60.4622 31.7356C60.5822 31.2556 60.7622 30.8636 61.0022 30.5596C61.2502 30.2476 61.5622 29.9916 61.9382 29.7916C62.3142 29.5916 62.7582 29.4196 63.2702 29.2756C63.7822 29.1236 64.3662 28.9636 65.0222 28.7956C65.0942 28.7796 65.1622 28.7916 65.2262 28.8316C65.2982 28.8716 65.3382 28.9276 65.3462 28.9996L65.4422 29.4916C65.4582 29.5636 65.4462 29.6276 65.4062 29.6836C65.3742 29.7396 65.3222 29.7756 65.2502 29.7916C64.6502 29.9436 64.1262 30.0756 63.6782 30.1876C63.2302 30.2996 62.8542 30.4316 62.5502 30.5836C62.2462 30.7276 62.0022 30.9156 61.8182 31.1476C61.6342 31.3796 61.5062 31.6876 61.4342 32.0716C61.3702 32.4556 61.3502 32.9476 61.3742 33.5476L61.1102 33.4396C61.1502 33.1436 61.2742 32.8756 61.4822 32.6356C61.6982 32.3876 61.9662 32.1876 62.2862 32.0356C62.6062 31.8836 62.9462 31.8076 63.3062 31.8076C63.8582 31.8076 64.3222 31.9236 64.6982 32.1556C65.0822 32.3876 65.3742 32.7036 65.5742 33.1036C65.7822 33.5036 65.8982 33.9636 65.9222 34.4836C65.9382 34.7556 65.9382 34.9916 65.9222 35.1916C65.8982 35.7116 65.7782 36.1756 65.5622 36.5836C65.3462 36.9836 65.0342 37.2996 64.6262 37.5316C64.2182 37.7556 63.7102 37.8676 63.1022 37.8676ZM63.1022 36.9796C63.6062 36.9796 64.0062 36.8236 64.3022 36.5116C64.5982 36.1996 64.7542 35.7436 64.7702 35.1436C64.7782 35.0636 64.7822 34.9716 64.7822 34.8676C64.7822 34.7636 64.7782 34.6556 64.7702 34.5436C64.7542 33.9356 64.5982 33.4756 64.3022 33.1636C64.0142 32.8516 63.6502 32.6956 63.2102 32.6956C62.7062 32.6956 62.2902 32.8516 61.9622 33.1636C61.6342 33.4756 61.4582 33.9356 61.4342 34.5436C61.4262 34.6556 61.4222 34.7636 61.4222 34.8676C61.4222 34.9716 61.4262 35.0636 61.4342 35.1436C61.4582 35.7436 61.6182 36.1996 61.9142 36.5116C62.2102 36.8236 62.6062 36.9796 63.1022 36.9796ZM71.3229 37.7476C71.2349 37.7476 71.1669 37.7236 71.1189 37.6756C71.0709 37.6196 71.0469 37.5516 71.0469 37.4716V35.5156H69.6669V35.4556C68.9149 35.4556 68.3549 35.2716 67.9869 34.9036C67.6269 34.5276 67.4469 34.0516 67.4469 33.4756C67.4469 32.8036 67.6429 32.3076 68.0349 31.9876C68.4349 31.6676 69.0349 31.5076 69.8349 31.5076H71.8989C71.9789 31.5076 72.0429 31.5356 72.0909 31.5916C72.1469 31.6396 72.1749 31.7036 72.1749 31.7836V37.4716C72.1749 37.5516 72.1469 37.6196 72.0909 37.6756C72.0429 37.7236 71.9789 37.7476 71.8989 37.7476H71.3229ZM67.5189 37.7476C67.4469 37.7476 67.3869 37.7236 67.3389 37.6756C67.2909 37.6276 67.2669 37.5716 67.2669 37.5076C67.2669 37.4756 67.2709 37.4436 67.2789 37.4116C67.2949 37.3716 67.3189 37.3316 67.3509 37.2916L68.7789 35.1796L69.9309 35.2636L68.4069 37.5676C68.3749 37.6076 68.3309 37.6476 68.2749 37.6876C68.2189 37.7276 68.1589 37.7476 68.0949 37.7476H67.5189ZM69.7029 34.6156H71.0589V32.4076H69.7989C69.3509 32.4076 69.0189 32.4876 68.8029 32.6476C68.5949 32.7996 68.4909 33.0756 68.4909 33.4756C68.4909 33.8036 68.5869 34.0756 68.7789 34.2916C68.9789 34.5076 69.2869 34.6156 69.7029 34.6156ZM77.1796 37.7476C77.0996 37.7476 77.0316 37.7236 76.9756 37.6756C76.9276 37.6196 76.9036 37.5516 76.9036 37.4716V31.7836C76.9036 31.7036 76.9276 31.6396 76.9756 31.5916C77.0316 31.5356 77.0996 31.5076 77.1796 31.5076H77.7556C77.8356 31.5076 77.8996 31.5356 77.9476 31.5916C77.9956 31.6396 78.0196 31.7036 78.0196 31.7836V34.0876H81.2956V31.7836C81.2956 31.7036 81.3196 31.6396 81.3676 31.5916C81.4236 31.5356 81.4916 31.5076 81.5716 31.5076H82.1356C82.2156 31.5076 82.2796 31.5356 82.3276 31.5916C82.3836 31.6396 82.4116 31.7036 82.4116 31.7836V37.4716C82.4116 37.5516 82.3836 37.6196 82.3276 37.6756C82.2796 37.7236 82.2156 37.7476 82.1356 37.7476H81.5716C81.4916 37.7476 81.4236 37.7236 81.3676 37.6756C81.3196 37.6196 81.2956 37.5516 81.2956 37.4716V35.0476H78.0196V37.4716C78.0196 37.5516 77.9956 37.6196 77.9476 37.6756C77.8996 37.7236 77.8356 37.7476 77.7556 37.7476H77.1796ZM86.7001 37.8676C85.8761 37.8676 85.2201 37.6156 84.7321 37.1116C84.2441 36.5996 83.9761 35.9036 83.9281 35.0236C83.9201 34.9196 83.9161 34.7876 83.9161 34.6276C83.9161 34.4596 83.9201 34.3236 83.9281 34.2196C83.9601 33.6516 84.0921 33.1556 84.3241 32.7316C84.5561 32.2996 84.8721 31.9676 85.2721 31.7356C85.6801 31.5036 86.1561 31.3876 86.7001 31.3876C87.3081 31.3876 87.8161 31.5156 88.2241 31.7716C88.6401 32.0276 88.9561 32.3916 89.1721 32.8636C89.3881 33.3356 89.4961 33.8876 89.4961 34.5196V34.7236C89.4961 34.8116 89.4681 34.8796 89.4121 34.9276C89.3641 34.9756 89.3001 34.9996 89.2201 34.9996H85.0681C85.0681 35.0076 85.0681 35.0236 85.0681 35.0476C85.0681 35.0716 85.0681 35.0916 85.0681 35.1076C85.0841 35.4356 85.1561 35.7436 85.2841 36.0316C85.4121 36.3116 85.5961 36.5396 85.8361 36.7156C86.0761 36.8916 86.3641 36.9796 86.7001 36.9796C86.9881 36.9796 87.2281 36.9356 87.4201 36.8476C87.6121 36.7596 87.7681 36.6636 87.8881 36.5596C88.0081 36.4476 88.0881 36.3636 88.1281 36.3076C88.2001 36.2036 88.2561 36.1436 88.2961 36.1276C88.3361 36.1036 88.4001 36.0916 88.4881 36.0916H89.0641C89.1441 36.0916 89.2081 36.1156 89.2561 36.1636C89.3121 36.2036 89.3361 36.2636 89.3281 36.3436C89.3201 36.4636 89.2561 36.6116 89.1361 36.7876C89.0161 36.9556 88.8441 37.1236 88.6201 37.2916C88.3961 37.4596 88.1241 37.5996 87.8041 37.7116C87.4841 37.8156 87.1161 37.8676 86.7001 37.8676ZM85.0681 34.1716H88.3561V34.1356C88.3561 33.7756 88.2881 33.4556 88.1521 33.1756C88.0241 32.8956 87.8361 32.6756 87.5881 32.5156C87.3401 32.3476 87.0441 32.2636 86.7001 32.2636C86.3561 32.2636 86.0601 32.3476 85.8121 32.5156C85.5721 32.6756 85.3881 32.8956 85.2601 33.1756C85.1321 33.4556 85.0681 33.7756 85.0681 34.1356V34.1716ZM91.195 37.7476C91.115 37.7476 91.051 37.7236 91.003 37.6756C90.955 37.6276 90.931 37.5636 90.931 37.4836V31.7356C90.931 31.6716 90.955 31.6196 91.003 31.5796C91.059 31.5316 91.115 31.5076 91.171 31.5076H91.783C91.911 31.5076 92.011 31.5716 92.083 31.6996L94.123 35.5156L96.175 31.6996C96.247 31.5716 96.347 31.5076 96.475 31.5076H97.075C97.139 31.5076 97.195 31.5316 97.243 31.5796C97.291 31.6196 97.315 31.6716 97.315 31.7356V37.4836C97.315 37.5636 97.291 37.6276 97.243 37.6756C97.195 37.7236 97.135 37.7476 97.063 37.7476H96.475C96.395 37.7476 96.331 37.7236 96.283 37.6756C96.235 37.6276 96.211 37.5636 96.211 37.4836V32.6956L96.631 32.7436L94.675 36.4396C94.635 36.5196 94.587 36.5916 94.531 36.6556C94.475 36.7196 94.391 36.7516 94.279 36.7516H93.967C93.863 36.7516 93.783 36.7196 93.727 36.6556C93.671 36.5916 93.619 36.5196 93.571 36.4396L91.675 32.9236L92.047 32.8876V37.4836C92.047 37.5636 92.023 37.6276 91.975 37.6756C91.927 37.7236 91.863 37.7476 91.783 37.7476H91.195ZM99.3867 37.7476C99.3067 37.7476 99.2387 37.7236 99.1827 37.6756C99.1347 37.6196 99.1107 37.5516 99.1107 37.4716V31.7836C99.1107 31.7036 99.1347 31.6396 99.1827 31.5916C99.2387 31.5356 99.3067 31.5076 99.3867 31.5076H99.9627C100.043 31.5076 100.107 31.5356 100.155 31.5916C100.203 31.6396 100.227 31.7036 100.227 31.7836V34.0876H103.503V31.7836C103.503 31.7036 103.527 31.6396 103.575 31.5916C103.631 31.5356 103.699 31.5076 103.779 31.5076H104.343C104.423 31.5076 104.487 31.5356 104.535 31.5916C104.591 31.6396 104.619 31.7036 104.619 31.7836V37.4716C104.619 37.5516 104.591 37.6196 104.535 37.6756C104.487 37.7236 104.423 37.7476 104.343 37.7476H103.779C103.699 37.7476 103.631 37.7236 103.575 37.6756C103.527 37.6196 103.503 37.5516 103.503 37.4716V35.0476H100.227V37.4716C100.227 37.5516 100.203 37.6196 100.155 37.6756C100.107 37.7236 100.043 37.7476 99.9627 37.7476H99.3867ZM108.979 37.8676C108.371 37.8676 107.863 37.7516 107.455 37.5196C107.047 37.2876 106.735 36.9676 106.519 36.5596C106.303 36.1436 106.183 35.6716 106.159 35.1436C106.151 35.0076 106.147 34.8356 106.147 34.6276C106.147 34.4116 106.151 34.2396 106.159 34.1116C106.183 33.5756 106.303 33.1036 106.519 32.6956C106.743 32.2876 107.059 31.9676 107.467 31.7356C107.875 31.5036 108.379 31.3876 108.979 31.3876C109.579 31.3876 110.083 31.5036 110.491 31.7356C110.899 31.9676 111.211 32.2876 111.427 32.6956C111.651 33.1036 111.775 33.5756 111.799 34.1116C111.807 34.2396 111.811 34.4116 111.811 34.6276C111.811 34.8356 111.807 35.0076 111.799 35.1436C111.775 35.6716 111.655 36.1436 111.439 36.5596C111.223 36.9676 110.911 37.2876 110.503 37.5196C110.095 37.7516 109.587 37.8676 108.979 37.8676ZM108.979 36.9436C109.475 36.9436 109.871 36.7876 110.167 36.4756C110.463 36.1556 110.623 35.6916 110.647 35.0836C110.655 34.9636 110.659 34.8116 110.659 34.6276C110.659 34.4436 110.655 34.2916 110.647 34.1716C110.623 33.5636 110.463 33.1036 110.167 32.7916C109.871 32.4716 109.475 32.3116 108.979 32.3116C108.483 32.3116 108.083 32.4716 107.779 32.7916C107.483 33.1036 107.327 33.5636 107.311 34.1716C107.303 34.2916 107.299 34.4436 107.299 34.6276C107.299 34.8116 107.303 34.9636 107.311 35.0836C107.327 35.6916 107.483 36.1556 107.779 36.4756C108.083 36.7876 108.483 36.9436 108.979 36.9436ZM113.59 37.7476C113.51 37.7476 113.442 37.7236 113.386 37.6756C113.338 37.6196 113.314 37.5516 113.314 37.4716V31.7836C113.314 31.7036 113.338 31.6396 113.386 31.5916C113.442 31.5356 113.51 31.5076 113.59 31.5076H117.178C117.258 31.5076 117.322 31.5356 117.37 31.5916C117.418 31.6396 117.442 31.7036 117.442 31.7836V32.1916C117.442 32.2716 117.418 32.3396 117.37 32.3956C117.322 32.4436 117.258 32.4676 117.178 32.4676H114.43V37.4716C114.43 37.5516 114.406 37.6196 114.358 37.6756C114.31 37.7236 114.246 37.7476 114.166 37.7476H113.59ZM121.026 37.8676C120.418 37.8676 119.91 37.7516 119.502 37.5196C119.094 37.2876 118.782 36.9676 118.566 36.5596C118.35 36.1436 118.23 35.6716 118.206 35.1436C118.198 35.0076 118.194 34.8356 118.194 34.6276C118.194 34.4116 118.198 34.2396 118.206 34.1116C118.23 33.5756 118.35 33.1036 118.566 32.6956C118.79 32.2876 119.106 31.9676 119.514 31.7356C119.922 31.5036 120.426 31.3876 121.026 31.3876C121.626 31.3876 122.13 31.5036 122.538 31.7356C122.946 31.9676 123.258 32.2876 123.474 32.6956C123.698 33.1036 123.822 33.5756 123.846 34.1116C123.854 34.2396 123.858 34.4116 123.858 34.6276C123.858 34.8356 123.854 35.0076 123.846 35.1436C123.822 35.6716 123.702 36.1436 123.486 36.5596C123.27 36.9676 122.958 37.2876 122.55 37.5196C122.142 37.7516 121.634 37.8676 121.026 37.8676ZM121.026 36.9436C121.522 36.9436 121.918 36.7876 122.214 36.4756C122.51 36.1556 122.67 35.6916 122.694 35.0836C122.702 34.9636 122.706 34.8116 122.706 34.6276C122.706 34.4436 122.702 34.2916 122.694 34.1716C122.67 33.5636 122.51 33.1036 122.214 32.7916C121.918 32.4716 121.522 32.3116 121.026 32.3116C120.53 32.3116 120.13 32.4716 119.826 32.7916C119.53 33.1036 119.374 33.5636 119.358 34.1716C119.35 34.2916 119.346 34.4436 119.346 34.6276C119.346 34.8116 119.35 34.9636 119.358 35.0836C119.374 35.6916 119.53 36.1556 119.826 36.4756C120.13 36.7876 120.53 36.9436 121.026 36.9436ZM128.002 37.7476C127.922 37.7476 127.854 37.7196 127.798 37.6636C127.742 37.6076 127.714 37.5396 127.714 37.4596V37.0156C127.714 36.8476 127.798 36.7596 127.966 36.7516C128.214 36.7436 128.422 36.6276 128.59 36.4036C128.758 36.1716 128.886 35.8076 128.974 35.3116C129.062 34.8076 129.106 34.1436 129.106 33.3196V31.7836C129.106 31.7036 129.13 31.6396 129.178 31.5916C129.234 31.5356 129.302 31.5076 129.382 31.5076H133.198C133.278 31.5076 133.342 31.5356 133.39 31.5916C133.446 31.6396 133.474 31.7036 133.474 31.7836V37.4716C133.474 37.5516 133.446 37.6196 133.39 37.6756C133.342 37.7236 133.278 37.7476 133.198 37.7476H132.622C132.542 37.7476 132.478 37.7236 132.43 37.6756C132.382 37.6196 132.358 37.5516 132.358 37.4716V32.4676H130.198V33.4516C130.198 34.2196 130.154 34.8796 130.066 35.4316C129.978 35.9756 129.842 36.4196 129.658 36.7636C129.482 37.0996 129.254 37.3476 128.974 37.5076C128.702 37.6676 128.378 37.7476 128.002 37.7476ZM135.551 40.0276C135.463 40.0276 135.395 39.9996 135.347 39.9436C135.299 39.8956 135.275 39.8316 135.275 39.7516V39.3436C135.275 39.2636 135.299 39.1956 135.347 39.1396C135.395 39.0916 135.463 39.0676 135.551 39.0676H135.863C136.047 39.0676 136.195 39.0316 136.307 38.9596C136.419 38.8876 136.519 38.7636 136.607 38.5876C136.703 38.4196 136.815 38.1876 136.943 37.8916L139.547 31.7116C139.571 31.6476 139.603 31.5996 139.643 31.5676C139.691 31.5276 139.759 31.5076 139.847 31.5076H140.375C140.447 31.5076 140.507 31.5316 140.555 31.5796C140.603 31.6276 140.627 31.6836 140.627 31.7476C140.627 31.7796 140.623 31.8116 140.615 31.8436C140.607 31.8676 140.591 31.9076 140.567 31.9636L138.287 37.3636C138.167 37.6516 138.035 37.9516 137.891 38.2636C137.755 38.5756 137.599 38.8636 137.423 39.1276C137.255 39.3996 137.055 39.6156 136.823 39.7756C136.591 39.9436 136.319 40.0276 136.007 40.0276H135.551ZM137.219 37.5676L134.795 31.9636C134.755 31.8676 134.735 31.7996 134.735 31.7596C134.743 31.6876 134.771 31.6276 134.819 31.5796C134.867 31.5316 134.923 31.5076 134.987 31.5076H135.551C135.639 31.5076 135.703 31.5276 135.743 31.5676C135.791 31.6076 135.827 31.6556 135.851 31.7116L137.843 36.4756L137.219 37.5676ZM145.773 37.7476C145.685 37.7476 145.617 37.7236 145.569 37.6756C145.521 37.6196 145.497 37.5516 145.497 37.4716V35.2156C145.281 35.4156 145.017 35.5636 144.705 35.6596C144.401 35.7476 144.053 35.7916 143.661 35.7916C142.957 35.7916 142.409 35.6356 142.017 35.3236C141.633 35.0116 141.441 34.5076 141.441 33.8116V31.7836C141.441 31.7036 141.465 31.6396 141.513 31.5916C141.569 31.5356 141.637 31.5076 141.717 31.5076H142.305C142.385 31.5076 142.449 31.5356 142.497 31.5916C142.553 31.6396 142.581 31.7036 142.581 31.7836V33.7396C142.581 34.0996 142.685 34.3636 142.893 34.5316C143.109 34.6996 143.437 34.7836 143.877 34.7836C144.365 34.7836 144.757 34.7236 145.053 34.6036C145.349 34.4756 145.497 34.2516 145.497 33.9316V31.7836C145.497 31.7036 145.521 31.6396 145.569 31.5916C145.617 31.5356 145.685 31.5076 145.773 31.5076H146.373C146.453 31.5076 146.517 31.5356 146.565 31.5916C146.621 31.6396 146.649 31.7036 146.649 31.7836V37.4716C146.649 37.5516 146.621 37.6196 146.565 37.6756C146.517 37.7236 146.453 37.7476 146.373 37.7476H145.773ZM148.711 37.7476C148.631 37.7476 148.563 37.7236 148.507 37.6756C148.459 37.6196 148.435 37.5516 148.435 37.4716V31.7836C148.435 31.7036 148.459 31.6396 148.507 31.5916C148.563 31.5356 148.631 31.5076 148.711 31.5076H149.263C149.343 31.5076 149.407 31.5356 149.455 31.5916C149.511 31.6396 149.539 31.7036 149.539 31.7836V36.7876H151.735V31.7836C151.735 31.7036 151.759 31.6396 151.807 31.5916C151.863 31.5356 151.931 31.5076 152.011 31.5076H152.515C152.603 31.5076 152.671 31.5356 152.719 31.5916C152.767 31.6396 152.791 31.7036 152.791 31.7836V36.7876H154.987V31.7836C154.987 31.7036 155.011 31.6396 155.059 31.5916C155.115 31.5356 155.183 31.5076 155.263 31.5076H155.815C155.895 31.5076 155.959 31.5356 156.007 31.5916C156.063 31.6396 156.091 31.7036 156.091 31.7836V37.4716C156.091 37.5516 156.063 37.6196 156.007 37.6756C155.959 37.7236 155.895 37.7476 155.815 37.7476H148.711ZM160.364 37.8676C159.54 37.8676 158.884 37.6156 158.396 37.1116C157.908 36.5996 157.64 35.9036 157.592 35.0236C157.584 34.9196 157.58 34.7876 157.58 34.6276C157.58 34.4596 157.584 34.3236 157.592 34.2196C157.624 33.6516 157.756 33.1556 157.988 32.7316C158.22 32.2996 158.536 31.9676 158.936 31.7356C159.344 31.5036 159.82 31.3876 160.364 31.3876C160.972 31.3876 161.48 31.5156 161.888 31.7716C162.304 32.0276 162.62 32.3916 162.836 32.8636C163.052 33.3356 163.16 33.8876 163.16 34.5196V34.7236C163.16 34.8116 163.132 34.8796 163.076 34.9276C163.028 34.9756 162.964 34.9996 162.884 34.9996H158.732C158.732 35.0076 158.732 35.0236 158.732 35.0476C158.732 35.0716 158.732 35.0916 158.732 35.1076C158.748 35.4356 158.82 35.7436 158.948 36.0316C159.076 36.3116 159.26 36.5396 159.5 36.7156C159.74 36.8916 160.028 36.9796 160.364 36.9796C160.652 36.9796 160.892 36.9356 161.084 36.8476C161.276 36.7596 161.432 36.6636 161.552 36.5596C161.672 36.4476 161.752 36.3636 161.792 36.3076C161.864 36.2036 161.92 36.1436 161.96 36.1276C162 36.1036 162.064 36.0916 162.152 36.0916H162.728C162.808 36.0916 162.872 36.1156 162.92 36.1636C162.976 36.2036 163 36.2636 162.992 36.3436C162.984 36.4636 162.92 36.6116 162.8 36.7876C162.68 36.9556 162.508 37.1236 162.284 37.2916C162.06 37.4596 161.788 37.5996 161.468 37.7116C161.148 37.8156 160.78 37.8676 160.364 37.8676ZM158.732 34.1716H162.02V34.1356C162.02 33.7756 161.952 33.4556 161.816 33.1756C161.688 32.8956 161.5 32.6756 161.252 32.5156C161.004 32.3476 160.708 32.2636 160.364 32.2636C160.02 32.2636 159.724 32.3476 159.476 32.5156C159.236 32.6756 159.052 32.8956 158.924 33.1756C158.796 33.4556 158.732 33.7756 158.732 34.1356V34.1716ZM164.895 35.7556C164.815 35.7556 164.747 35.7316 164.691 35.6836C164.643 35.6276 164.619 35.5596 164.619 35.4796V29.6236C164.619 29.5436 164.643 29.4796 164.691 29.4316C164.747 29.3756 164.815 29.3476 164.895 29.3476H165.459C165.539 29.3476 165.603 29.3756 165.651 29.4316C165.699 29.4796 165.723 29.5436 165.723 29.6236V35.4796C165.723 35.5596 165.699 35.6276 165.651 35.6836C165.603 35.7316 165.539 35.7556 165.459 35.7556H164.895ZM164.787 37.7476C164.707 37.7476 164.639 37.7236 164.583 37.6756C164.535 37.6196 164.511 37.5516 164.511 37.4716V36.7156C164.511 36.6276 164.535 36.5596 164.583 36.5116C164.639 36.4556 164.707 36.4276 164.787 36.4276H165.555C165.635 36.4276 165.699 36.4556 165.747 36.5116C165.803 36.5596 165.831 36.6276 165.831 36.7156V37.4716C165.831 37.5516 165.803 37.6196 165.747 37.6756C165.699 37.7236 165.635 37.7476 165.555 37.7476H164.787Z" fill="white"/>
</svg>
