<svg width="20" height="21" viewBox="0 0 20 21" fill="none" xmlns="http://www.w3.org/2000/svg">
<path d="M17.7446 2.50967C15.2838 3.52887 4.73217 7.89947 1.81678 9.09067C-0.138425 9.85367 1.00618 10.5691 1.00618 10.5691C1.00618 10.5691 2.67518 11.1413 4.10598 11.5705C5.53658 11.9997 6.29958 11.5229 6.29958 11.5229L13.0236 6.99247C15.408 5.37107 14.8358 6.70627 14.2634 7.27867C13.0236 8.51867 10.973 10.4737 9.25618 12.0475C8.49317 12.7151 8.87457 13.2873 9.20858 13.5735C10.4484 14.6227 13.8344 16.7687 14.025 16.9117C15.0324 17.6249 17.014 18.6515 17.3154 16.4825L18.5076 8.99547C18.8892 6.46807 19.2706 4.13127 19.3182 3.46367C19.4614 1.84207 17.7446 2.50967 17.7446 2.50967Z" fill="white"/>
</svg>
