<svg width="20" height="21" viewBox="0 0 20 21" fill="none" xmlns="http://www.w3.org/2000/svg">
<path fill-rule="evenodd" clip-rule="evenodd" d="M18.9336 5.2373C19.0727 4.79668 18.9336 4.47637 18.3184 4.47637H16.2727C15.7566 4.47637 15.5184 4.75684 15.3793 5.05684C15.3793 5.05684 14.327 7.61934 12.8574 9.28066C12.3809 9.76113 12.1625 9.92129 11.9043 9.92129C11.7652 9.92129 11.5863 9.76113 11.5863 9.3209V5.2166C11.5863 4.69629 11.4277 4.45605 10.9906 4.45605H7.77344C7.45547 4.45605 7.25703 4.69629 7.25703 4.93652C7.25703 5.43691 7.9918 5.55723 8.07109 6.9584V10.0029C8.07109 10.6635 7.95391 10.7842 7.69375 10.7842C6.99883 10.7842 5.31094 8.20176 4.29844 5.25918C4.10156 4.67637 3.90156 4.45605 3.38516 4.45605H1.31992C0.724219 4.45605 0.625 4.73613 0.625 5.03652C0.625 5.57715 1.31992 8.29941 3.86172 11.9025C5.54961 14.3635 7.95234 15.6861 10.1168 15.6861C11.4277 15.6861 11.5863 15.3857 11.5863 14.8854V13.0236C11.5863 12.4232 11.7055 12.3232 12.1227 12.3232C12.4203 12.3232 12.9566 12.483 14.168 13.6643C15.5578 15.0654 15.7961 15.7061 16.5707 15.7061H18.616C19.2117 15.7061 19.4898 15.4057 19.3309 14.8252C19.1523 14.2447 18.477 13.4041 17.6031 12.4033C17.1266 11.8432 16.4117 11.2225 16.1934 10.9221C15.8957 10.5217 15.975 10.3615 16.1934 10.0014C16.1734 10.0014 18.6758 6.43809 18.9336 5.23574" fill="white"/>
</svg>
