<svg width="20" height="21" viewBox="0 0 20 21" fill="none" xmlns="http://www.w3.org/2000/svg">
<path fill-rule="evenodd" clip-rule="evenodd" d="M16.3619 3.86072C14.721 2.21801 12.539 1.31296 10.2142 1.31201C5.42397 1.31201 1.52525 5.21041 1.52338 10.0021C1.52271 11.5338 1.9229 13.0289 2.68346 14.3468L1.4505 18.8503L6.05759 17.6418C7.32696 18.3341 8.75616 18.6991 10.2107 18.6996H10.2142C10.2139 18.6996 10.2145 18.6996 10.2142 18.6996C15.0039 18.6996 18.903 14.8008 18.905 10.009C18.9058 7.68684 18.0027 5.50336 16.3619 3.86072ZM10.2142 17.2319H10.2113C8.91516 17.2314 7.64386 16.8831 6.5348 16.225L6.27106 16.0685L3.53714 16.7856L4.2669 14.1201L4.09513 13.8468C3.37208 12.6967 2.9902 11.3674 2.99076 10.0026C2.99231 6.01993 6.23278 2.77981 10.2171 2.77981C12.1465 2.78041 13.9601 3.53278 15.3239 4.89813C16.6877 6.26349 17.4383 8.07835 17.4376 10.0084C17.4359 13.9914 14.1956 17.2319 10.2142 17.2319Z" fill="white"/>
<path fill-rule="evenodd" clip-rule="evenodd" d="M14.1764 11.8219C13.9592 11.7132 12.8916 11.188 12.6925 11.1155C12.4935 11.043 12.3487 11.0068 12.204 11.2242C12.0592 11.4415 11.6431 11.9307 11.5164 12.0756C11.3897 12.2205 11.263 12.2387 11.0459 12.1299C10.8288 12.0212 10.1291 11.792 9.29967 11.0521C8.65409 10.4763 8.2183 9.76525 8.09159 9.5478C7.96494 9.33045 8.07811 9.21294 8.18684 9.10464C8.28452 9.00731 8.40401 8.85103 8.51259 8.7242C8.62114 8.59745 8.65734 8.50679 8.72973 8.36197C8.80212 8.21702 8.76596 8.09019 8.71163 7.98154C8.65734 7.87285 8.22307 6.804 8.04213 6.36913C7.86581 5.94577 7.68681 6.00313 7.5535 5.99639C7.42703 5.99007 7.28207 5.98877 7.13732 5.98877C6.99258 5.98877 6.75728 6.04313 6.55828 6.26048C6.35924 6.47789 5.79822 7.00329 5.79822 8.07203C5.79822 9.1409 6.57634 10.1735 6.68492 10.3184C6.79347 10.4634 8.21615 12.6566 10.3945 13.5973C10.9126 13.821 11.3171 13.9546 11.6324 14.0547C12.1526 14.22 12.626 14.1966 13.0002 14.1407C13.4174 14.0784 14.2849 13.6154 14.4659 13.1082C14.6469 12.6009 14.6469 12.1661 14.5925 12.0756C14.5383 11.985 14.3935 11.9307 14.1764 11.8219Z" fill="white"/>
</svg>
